<?xml version="1.0" standalone="no"?>
<!DOCTYPE svg PUBLIC "-//W3C//DTD SVG 1.1//EN" "http://www.w3.org/Graphics/SVG/1.1/DTD/svg11.dtd" >
<svg>
<metadata>
Created by FontForge 20120731 at Tue May 17 11:42:54 2016
 By www
Copyright (c) 2013 by Eduilson Coan. All rights reserved.
</metadata>
<defs>
<font id="EncorpadaClassicW01-LightIt" horiz-adv-x="605" >
  <font-face 
    font-family="EncorpadaClassicW01-LightIt"
    font-weight="300"
    font-style="italic"
    font-stretch="normal"
    units-per-em="1000"
    panose-1="1 0 0 0 0 0 0 0 0 0"
    ascent="800"
    descent="-200"
    x-height="500"
    cap-height="700"
    bbox="-123 -275 1260 970"
    underline-thickness="50"
    underline-position="-125"
    slope="-8"
    unicode-range="U+0020-2122"
  />
<missing-glyph horiz-adv-x="563" 
d="M63 700h500v-700h-500v700zM483 650h-340l170 -255zM513 95v510l-170 -255zM483 50l-170 255l-170 -255h340zM113 95l170 255l-170 255v-510z" />
    <glyph glyph-name=".notdef" horiz-adv-x="563" 
d="M63 700h500v-700h-500v700zM483 650h-340l170 -255zM513 95v510l-170 -255zM483 50l-170 255l-170 -255h340zM113 95l170 255l-170 255v-510z" />
    <glyph glyph-name=".null" horiz-adv-x="0" 
 />
    <glyph glyph-name="nonmarkingreturn" horiz-adv-x="333" 
 />
    <glyph glyph-name="space" unicode=" " horiz-adv-x="244" 
 />
    <glyph glyph-name="exclam" unicode="!" horiz-adv-x="235" 
d="M105 191q14 113 17.5 191.5t2 132.5t-4 88t-0.5 57q2 31 18.5 48t44.5 17q20 0 33.5 -13t13.5 -36q0 -19 -4.5 -37.5t-12.5 -43.5t-19 -58t-24 -81t-27 -112.5t-28 -152.5h-10zM96 99q21 0 34 -13.5t13 -33.5q0 -28 -18.5 -45.5t-44.5 -17.5q-21 0 -34.5 13.5t-13.5 33.5
q0 28 19 45.5t45 17.5z" />
    <glyph glyph-name="quotedbl" unicode="&#x22;" horiz-adv-x="389" 
d="M143 508q4 40 2.5 65t-5 43t-7 33.5t-3.5 37.5q0 28 14.5 45.5t37.5 17.5q17 0 26 -10.5t9 -27.5q0 -21 -7.5 -38.5t-17.5 -39t-21 -51t-18 -75.5h-10zM306 508q4 40 2.5 65t-4.5 43t-6.5 33.5t-3.5 37.5q0 28 14 45.5t37 17.5q17 0 26.5 -10.5t9.5 -27.5
q0 -21 -7.5 -38.5t-18 -39t-21.5 -51t-18 -75.5h-10z" />
    <glyph glyph-name="numbersign" unicode="#" horiz-adv-x="826" 
d="M480 235h208l-3 -10h-209l-80 -226h-10l80 226h-199l-80 -226h-10l80 226h-192l3 10h193l81 229h-197l4 10h197l78 223h10l-78 -223h199l78 223h10l-78 -223h194l-4 -10h-194zM352 464l-81 -229h199l81 229h-199z" />
    <glyph glyph-name="dollar" unicode="$" horiz-adv-x="592" 
d="M548 500h-10q1 33 -7.5 66.5t-28.5 61.5t-52 47t-76 24l-41 -303q36 -16 72.5 -32t65.5 -37.5t47 -49.5t18 -68q0 -50 -17.5 -90t-49.5 -69t-78.5 -44.5t-104.5 -15.5h-10l-12 -93h-10l13 94q-34 3 -60 14.5t-46.5 23.5t-36.5 22t-31 10q-17 0 -27.5 -15.5t-14.5 -44.5
h-10l37 264h10q2 -120 51.5 -188t128.5 -76l41 294q-36 16 -72.5 34t-65 42t-46.5 56t-18 76q0 45 18.5 82.5t51 65.5t76.5 43.5t96 15.5l17 -1l12 86h10l-12 -87q28 -3 50.5 -11.5t41.5 -17t34 -15.5t29 -7q29 0 37 57h10zM347 700q-36 0 -67.5 -11t-54.5 -31t-36 -47
t-13 -59q0 -30 12 -52.5t32.5 -40t47 -32t55.5 -27.5l42 299zM288 0q88 0 133 42.5t45 110.5q0 26 -12 46t-32.5 36t-47.5 29.5t-56 26.5l-40 -291h10z" />
    <glyph glyph-name="percent" unicode="%" horiz-adv-x="898" 
d="M282 727q30 0 55.5 -10t44 -27.5t29 -42t10.5 -53.5q0 -39 -14 -73t-38.5 -58.5t-58.5 -38.5t-73 -14q-31 0 -56.5 10t-44 27.5t-28.5 41.5t-10 53q0 39 14 73t38.5 59t58.5 39t73 14zM118 -12l-8 7l687 727l8 -7zM280 717q-25 0 -45.5 -17t-35.5 -44t-23.5 -61t-8.5 -69
q0 -52 19.5 -79t51.5 -27q25 0 45.5 17.5t35.5 45t23.5 62t8.5 69.5q0 46 -19 74.5t-52 28.5zM692 306q30 0 55.5 -10t44 -27.5t29 -42t10.5 -53.5q0 -39 -14 -73t-38.5 -58.5t-58.5 -38.5t-73 -14q-31 0 -56.5 10t-44 27.5t-29 41.5t-10.5 53q0 39 14 73t39 59t59 39t73 14
zM690 296q-25 0 -45.5 -17t-35.5 -44t-23.5 -61t-8.5 -69q0 -52 19.5 -79t51.5 -27q25 0 45.5 17.5t35.5 45t23.5 62t8.5 69.5q0 46 -19 74.5t-52 28.5z" />
    <glyph glyph-name="ampersand" unicode="&#x26;" horiz-adv-x="1001" 
d="M971 150q-38 -77 -101.5 -119t-150.5 -42q-51 0 -95 13t-82 36q-46 -23 -99 -35.5t-113 -12.5q-59 0 -108.5 15.5t-86 44.5t-57 71t-20.5 95q0 49 17 95.5t52 86.5t88.5 71t126.5 51q5 53 19.5 97.5t36.5 76t51 49t63 17.5q37 0 57.5 -20t20.5 -55q0 -29 -11.5 -52.5
t-32.5 -43t-50 -33.5t-63 -23v-23q0 -58 11 -119t32 -117.5t52 -105.5t70 -84q34 26 60.5 55.5t44 57.5t26.5 52t9 39q0 56 -76 56h-38l1 10h294l-1 -10h-34q-54 0 -84 -17t-49 -63q-22 -54 -58 -102t-87 -85q33 -26 71 -41.5t81 -15.5q69 0 121 34.5t82 97.5zM525 742
q-18 0 -34 -15t-28 -41.5t-20 -63.5t-10 -80q66 18 106.5 55.5t40.5 85.5q0 27 -14.5 43t-40.5 16zM365 6q48 0 90 10.5t78 27.5q-47 31 -83 76.5t-60.5 101t-37 118.5t-12.5 129q0 11 0.5 21.5t1.5 21.5q-55 -17 -93 -45.5t-61 -65t-33.5 -79t-10.5 -87.5q0 -47 14 -88.5
t41.5 -73t69 -49.5t96.5 -18z" />
    <glyph glyph-name="quotesingle" unicode="'" horiz-adv-x="226" 
d="M143 508q4 40 2.5 65t-5 43t-7 33.5t-3.5 37.5q0 28 14.5 45.5t37.5 17.5q17 0 26 -10.5t9 -27.5q0 -21 -7.5 -38.5t-17.5 -39t-21 -51t-18 -75.5h-10z" />
    <glyph glyph-name="parenleft" unicode="(" horiz-adv-x="343" 
d="M267 -124q-53 34 -91.5 77.5t-63 92.5t-36.5 102t-12 106q0 58 16.5 127t55 138.5t101.5 135t156 117.5l3 -8q-70 -59 -116 -129.5t-73 -144t-38 -145.5t-11 -134q0 -97 26.5 -183t86.5 -146z" />
    <glyph glyph-name="parenright" unicode=")" horiz-adv-x="343" 
d="M98 772q52 -35 90.5 -78t63 -92t36.5 -102t12 -106q0 -59 -16.5 -127.5t-55 -138t-101 -135t-155.5 -117.5l-4 8q70 59 116 129.5t73 144t38 145.5t11 134q0 97 -26.5 183t-86.5 146z" />
    <glyph glyph-name="asterisk" unicode="*" horiz-adv-x="593" 
d="M327 508q8 59 7.5 91.5t-4 51t-7 29.5t-1.5 27q2 20 15 31.5t31 11.5t27 -11.5t7 -31.5q-2 -16 -8.5 -27t-15.5 -29.5t-19 -51t-18 -91.5h-14zM298 484q-52 20 -83 26t-49.5 6.5t-30.5 -1t-27 4.5q-19 6 -24 20.5t2 31.5q9 17 24.5 24t35.5 -1q14 -6 21 -14.5t20.5 -20.5
t39.5 -27.5t78 -36.5zM358 496q57 20 87.5 36t47.5 28t26.5 20.5t25.5 14.5q21 8 34.5 1t18.5 -24q2 -17 -7 -31t-28 -21q-16 -5 -28 -4t-31.5 0.5t-52.5 -6.5t-91 -26zM309 451q-44 -46 -64.5 -74.5t-29.5 -46.5t-13.5 -29.5t-16.5 -24.5q-14 -15 -31.5 -16.5t-30.5 11.5
q-12 12 -10 28.5t17 30.5q13 13 24.5 18.5t29.5 15.5t45 30.5t71 64.5zM351 459q31 -44 53 -65t37 -31t26 -15.5t20 -18.5q10 -15 7 -31t-19 -28t-32 -10t-26 17q-8 13 -9.5 24t-6 29t-17.5 46t-44 74z" />
    <glyph glyph-name="plus" unicode="+" horiz-adv-x="644" 
d="M341 345l-36 -259h-10l36 259h-290l2 10h290l36 260h10l-36 -260h288l-2 -10h-288z" />
    <glyph glyph-name="comma" unicode="," horiz-adv-x="217" 
d="M10 -69q45 0 74 25t36 73q-14 -39 -54 -39q-20 0 -33 12t-13 32q0 27 17 42.5t43 15.5q23 1 37 -14.5t14 -38.5q0 -18 -6.5 -38.5t-20.5 -38.5t-38 -29.5t-58 -11.5z" />
    <glyph glyph-name="hyphen" unicode="-" horiz-adv-x="462" 
d="M39 235l2 10h380l-2 -10h-380z" />
    <glyph glyph-name="period" unicode="." horiz-adv-x="227" 
d="M93 99q21 0 34 -13.5t13 -33.5q0 -28 -18.5 -45.5t-44.5 -17.5q-21 0 -34 13.5t-13 33.5q0 28 18.5 45.5t44.5 17.5z" />
    <glyph glyph-name="slash" unicode="/" horiz-adv-x="288" 
d="M-26 -39l352 749h12l-352 -749h-12z" />
    <glyph glyph-name="zero" unicode="0" horiz-adv-x="642" 
d="M402 711q49 0 88 -19.5t66 -55.5t41 -86.5t14 -112.5q0 -95 -26 -176.5t-72 -142t-109 -95t-137 -34.5q-48 0 -86.5 19t-65.5 54.5t-41.5 86t-14.5 112.5q0 96 26 178t72 142.5t108.5 95t136.5 34.5zM386 701q-50 0 -92.5 -45t-74 -116t-49.5 -159t-18 -175
q0 -101 33 -154t95 -53q51 0 94.5 44.5t75 115t49.5 157.5t18 173q0 103 -34.5 157.5t-96.5 54.5z" />
    <glyph glyph-name="one" unicode="1" horiz-adv-x="458" 
d="M262 99l-2 -16t-1 -15q0 -34 28.5 -46t102.5 -12l-1 -10h-374l1 10q43 0 71 3.5t45.5 12.5t26 24t11.5 38l67 475q2 10 2.5 18t0.5 12q0 20 -9.5 29t-33.5 11q-35 2 -110 -16l-1 10q37 6 73.5 14.5t69.5 19.5t61 24t49 29l9 -4z" />
    <glyph glyph-name="two" unicode="2" horiz-adv-x="597" 
d="M12 2q-1 9 -0.5 21t2.5 22q8 58 32.5 100t58.5 73t75 53.5t82.5 42.5t80.5 40.5t69.5 47t48.5 61.5t18 85q0 73 -39 111t-111 38q-42 0 -79 -12t-66.5 -33.5t-48.5 -51.5t-23 -66q8 21 24.5 33t36.5 12q23 0 37.5 -14.5t14.5 -37.5q0 -26 -19 -45t-45 -19t-43 17t-17 46
q0 28 14.5 60.5t45 60t78.5 46t115 18.5q51 0 91.5 -13.5t69 -37t43.5 -55.5t15 -70q0 -39 -15.5 -72.5t-49 -62.5t-86.5 -53.5t-128 -46.5q-48 -15 -91.5 -34t-79 -46.5t-60 -66.5t-34.5 -94q18 39 51.5 58.5t73.5 19.5q37 0 68 -10.5t61 -22.5t61.5 -22.5t68.5 -10.5
q50 0 79.5 27.5t30.5 72.5q0 12 -1 24t-5 23l9 3q13 -33 13 -65q0 -35 -10 -65.5t-29 -53t-47 -35.5t-64 -13q-47 0 -84.5 13t-71.5 29t-67 29t-71 13q-58 0 -75 -71h-8z" />
    <glyph glyph-name="three" unicode="3" horiz-adv-x="580" 
d="M232 374q70 0 114 18.5t69 46t34.5 60.5t9.5 63q0 64 -35 99.5t-101 35.5q-39 0 -74 -10.5t-62 -29.5t-44 -44.5t-20 -56.5q8 20 24.5 31t37.5 11t35.5 -15t14.5 -38q0 -27 -18 -44t-46 -17q-26 0 -43 16t-17 45t14.5 58.5t43.5 53.5t74 39t105 15q43 0 79.5 -10.5
t63 -30t41 -47.5t14.5 -62q0 -40 -18.5 -74.5t-53 -60.5t-83 -41t-107.5 -15q54 0 97.5 -11.5t75 -32.5t48.5 -51.5t17 -68.5q0 -36 -16 -74.5t-50.5 -70t-89 -52t-132.5 -20.5q-48 0 -86 11t-65 30.5t-41 46t-14 56.5q0 41 21.5 65t52.5 24q23 0 38.5 -15t15.5 -38
q0 -27 -17.5 -44t-44.5 -17q-22 0 -37 12t-18 30q-1 -5 -1 -9v-9q0 -26 12.5 -49.5t35.5 -41t55.5 -28t72.5 -10.5q61 0 102 22t65.5 54.5t34.5 70t10 69.5q0 145 -195 145z" />
    <glyph glyph-name="four" unicode="4" horiz-adv-x="620" 
d="M6 230q45 21 96 59.5t97.5 97.5t83 140.5t51.5 187.5q21 -9 48 -9q15 0 29.5 2t25.5 7q-9 -61 -33.5 -118t-58.5 -108t-75.5 -94t-83.5 -76t-82.5 -55t-72.5 -30h363l29 213q36 20 66 62.5t38 96.5h10l-52 -372h124l-2 -10h-124l-18 -130l-2 -16t-1 -14q0 -31 20.5 -42.5
t76.5 -11.5l-1 -10h-327l1 10q37 0 62.5 3.5t42 12t24.5 23t11 35.5l20 140h-384z" />
    <glyph glyph-name="five" unicode="5" horiz-adv-x="587" 
d="M145 649q24 32 52 50t65 18q27 0 53 -9t51.5 -20.5t51.5 -20.5t53 -9q68 0 73 61l7 2q3 -9 5 -20.5t2 -21.5q0 -42 -28 -72t-85 -30q-35 0 -65 11.5t-57 26.5t-52.5 28.5t-50.5 16.5q-19 2 -38 -1.5t-39 -20.5l-40 -290q25 11 48.5 20t48 15t52.5 9t61 3q105 0 161 -47
t56 -122q0 -54 -22.5 -98t-62.5 -74.5t-95 -47.5t-120 -17q-94 0 -148.5 37.5t-54.5 102.5q0 41 21 63.5t51 22.5q23 0 38.5 -15t15.5 -38q0 -27 -17.5 -44.5t-43.5 -17.5q-23 0 -36.5 12t-17.5 32q-1 -5 -1 -8.5v-6.5q0 -29 13 -52t36 -40t55.5 -26t71.5 -9q52 0 93.5 17.5
t70 48.5t43.5 72.5t15 89.5q0 69 -38 110.5t-107 41.5q-57 0 -101 -12t-93 -35l-5 2l53 373h10z" />
    <glyph glyph-name="six" unicode="6" horiz-adv-x="624" 
d="M380 416q92 0 143.5 -46.5t51.5 -126.5q0 -55 -21.5 -101.5t-60 -80.5t-91 -53t-114.5 -19q-53 0 -95.5 19.5t-73 55.5t-47 87.5t-16.5 114.5q0 91 28.5 172t79.5 142t120 96t150 35q74 0 114 -31t40 -80q0 -41 -19.5 -64t-50.5 -23q-25 0 -41 15.5t-16 39.5
q0 26 17.5 43.5t45.5 17.5q20 0 35.5 -13t16.5 -33q1 5 1.5 8t0.5 8q0 47 -37.5 74.5t-103.5 27.5q-55 0 -101.5 -28.5t-82.5 -77.5t-60.5 -114.5t-34.5 -139.5q47 35 106.5 55t115.5 20zM296 -1q40 0 74.5 20t59.5 54.5t39 81t14 99.5q0 68 -33 108.5t-94 40.5
q-48 0 -101.5 -20t-98.5 -55q-6 -47 -6 -96q0 -51 10.5 -94t29.5 -73.5t46 -48t60 -17.5z" />
    <glyph glyph-name="seven" unicode="7" horiz-adv-x="503" 
d="M537 717q-11 -78 -34 -137t-52.5 -108t-62 -91.5t-62 -88t-52 -98t-31.5 -120.5q-5 -42 -18.5 -63.5t-40.5 -21.5q-22 0 -34 14t-12 39q0 51 21 94.5t55 84.5t75.5 82.5t82.5 89.5t77 105t58 129q-14 17 -30.5 24t-34.5 7q-28 0 -59.5 -13t-65 -28.5t-70 -28.5t-74.5 -13
q-44 0 -66.5 20.5t-22.5 58.5q0 35 20 69l7 -2q-3 -33 10.5 -47.5t44.5 -14.5q29 0 57.5 9t58 19.5t59 19.5t59.5 9q36 0 66 -21t45 -57q5 19 9 38.5t7 40.5h10z" />
    <glyph glyph-name="eight" unicode="8" horiz-adv-x="578" 
d="M419 353q21 -14 39 -29t31.5 -33t21 -40.5t7.5 -50.5q0 -47 -19.5 -85.5t-54.5 -66.5t-84 -43.5t-109 -15.5q-46 0 -84.5 13.5t-66 37.5t-43 56.5t-15.5 71.5q0 74 44.5 129.5t122.5 84.5q-29 24 -48 55.5t-19 79.5q0 42 16.5 77.5t46 61.5t70 40.5t88.5 14.5
q40 0 73.5 -11.5t57.5 -33t37 -51.5t13 -67q0 -132 -125 -195zM370 698q-32 0 -59 -11t-47 -29.5t-31 -43.5t-11 -53q0 -42 17.5 -71.5t44.5 -52t60.5 -41t65.5 -37.5q124 62 124 189q0 33 -12 61t-34 47.5t-52 30.5t-66 11zM238 1q42 -1 76.5 11t59.5 33.5t38.5 52
t13.5 66.5q0 44 -21 73.5t-52 52t-68 42t-68 43.5q-77 -26 -121 -80t-44 -127q0 -36 14 -66.5t39 -52.5t59 -34.5t74 -13.5z" />
    <glyph glyph-name="nine" unicode="9" horiz-adv-x="627" 
d="M365 711q52 0 94.5 -19.5t73 -55.5t47 -87.5t16.5 -114.5q0 -92 -28.5 -172.5t-79 -141.5t-119.5 -96t-150 -35q-74 0 -113.5 31.5t-39.5 80.5q0 41 19 63.5t51 22.5q25 0 40 -15.5t15 -39.5q0 -26 -17.5 -43.5t-45.5 -17.5q-20 0 -35 13t-17 33q-1 -5 -1 -8v-8
q0 -47 37.5 -74.5t103.5 -27.5q55 0 101.5 28.5t82.5 77.5t60 114.5t35 139.5q-47 -35 -106.5 -55t-115.5 -20q-92 0 -144 46.5t-52 126.5q0 55 21.5 101.5t60 80.5t91.5 53t115 19zM297 297q48 0 101.5 20t98.5 55q6 46 6 96q0 51 -10.5 94t-29.5 73.5t-46 48t-60 17.5
q-40 0 -74.5 -20t-59.5 -54.5t-39 -81t-14 -99.5q0 -68 32.5 -108.5t94.5 -40.5z" />
    <glyph glyph-name="colon" unicode=":" horiz-adv-x="208" 
d="M139 488q21 0 33.5 -13t12.5 -33q0 -28 -18 -46t-44 -18q-21 0 -34.5 14t-13.5 34q0 27 19 44.5t45 17.5zM83 100q21 0 33.5 -13t12.5 -33q0 -28 -18 -45.5t-44 -17.5q-21 0 -34.5 13.5t-13.5 33.5q0 27 19 44.5t45 17.5z" />
    <glyph glyph-name="semicolon" unicode=";" horiz-adv-x="236" 
d="M151 488q21 0 33.5 -13t12.5 -33q0 -28 -18 -46t-44 -18q-21 0 -34.5 14t-13.5 34q0 27 19 44.5t45 17.5zM18 -74q46 0 75 25.5t37 73.5q-14 -39 -55 -39q-21 0 -33.5 12t-12.5 33q0 26 17 42t43 16q23 0 37.5 -15.5t14.5 -38.5q0 -18 -6.5 -39t-21 -38.5t-38.5 -29.5
t-59 -12z" />
    <glyph glyph-name="less" unicode="&#x3c;" horiz-adv-x="642" 
d="M578 85l-6 -10l-541 271l2 12l615 272l4 -10l-610 -268z" />
    <glyph glyph-name="equal" unicode="=" horiz-adv-x="638" 
d="M55 460l1 10h588l-1 -10h-588zM24 237l1 10h588l-1 -10h-588z" />
    <glyph glyph-name="greater" unicode="&#x3e;" horiz-adv-x="642" 
d="M615 347l-615 -272l-4 10l609 268l-535 267l6 10l541 -271z" />
    <glyph glyph-name="question" unicode="?" horiz-adv-x="569" 
d="M214 200q-4 15 -4 32q0 38 19.5 65t48.5 50t62.5 45.5t62.5 51.5t48.5 68.5t19.5 96.5q0 65 -38 103.5t-109 38.5q-41 0 -77 -13t-64.5 -36.5t-47 -55.5t-23.5 -69q6 22 23 32.5t38 10.5q22 0 36 -15t14 -36q0 -29 -18 -46.5t-47 -17.5q-26 0 -41.5 17t-15.5 46
q0 28 13.5 62t43.5 64t77.5 50.5t114.5 20.5q48 0 86.5 -11.5t66 -32.5t42 -51t14.5 -67q0 -60 -25 -100.5t-62.5 -69.5t-81.5 -50t-81.5 -43t-62.5 -47.5t-25 -63.5q0 -6 0.5 -13.5t2.5 -13.5zM230 102q22 0 35 -13.5t13 -34.5q0 -29 -19 -47t-45 -18q-22 0 -35.5 14
t-13.5 35q0 28 19.5 46t45.5 18z" />
    <glyph glyph-name="at" unicode="@" horiz-adv-x="1067" 
d="M702 -152q-50 -29 -118.5 -45.5t-133.5 -16.5q-94 0 -169.5 25.5t-128.5 73t-81.5 114t-28.5 148.5q0 120 43.5 221t120.5 175t182.5 115.5t230.5 41.5q94 0 170 -27.5t129 -77.5t82 -120t29 -155q0 -72 -18.5 -134t-51 -107t-77 -71t-96.5 -26q-32 0 -58.5 10.5
t-47 30.5t-32.5 48t-13 63h-2q-11 -35 -30.5 -62t-45.5 -45.5t-56 -28t-61 -9.5q-44 0 -79.5 15t-60.5 41.5t-39 63.5t-14 81q0 70 23.5 129t65.5 101.5t100.5 66t127.5 23.5q20 0 40.5 -1t44 -4t52 -8t64.5 -12l5 -6l-55 -340q-4 -20 -4 -42q0 -52 25.5 -75.5t67.5 -23.5
q44 0 83 24.5t68.5 68t46.5 102t17 127.5q0 82 -28 150.5t-80.5 117t-126.5 75.5t-166 27q-122 0 -225.5 -41t-179.5 -113t-118.5 -171.5t-42.5 -216.5q0 -80 28 -145t79.5 -111t125.5 -71t166 -25q32 0 66 4.5t66.5 12.5t62 19.5t52.5 25.5zM679 489q-32 6 -58.5 8.5
t-57.5 2.5q-47 0 -87.5 -23.5t-70 -66t-46.5 -101.5t-17 -129q0 -82 34 -126.5t91 -44.5q28 0 55.5 13.5t49.5 34.5t37.5 47.5t19.5 52.5z" />
    <glyph glyph-name="A" unicode="A" horiz-adv-x="749" 
d="M700 0h-303l1 10h29q38 0 55.5 12.5t21.5 36.5q3 20 -5 52l-25 116h-280l-64 -115q-11 -20 -16 -33t-7 -24q-6 -45 59 -45h52l-1 -10h-238l1 10h29q31 0 55 24t56 80l326 586h16l133 -599q5 -24 10.5 -41t13.5 -28t20.5 -16.5t32.5 -5.5h29zM396 591l-197 -354h273z" />
    <glyph glyph-name="B" unicode="B" horiz-adv-x="720" 
d="M470 700q43 0 79 -10.5t61 -29.5t39 -45.5t14 -59.5q0 -69 -50.5 -114t-145.5 -53q85 -8 135.5 -51.5t50.5 -112.5q0 -51 -19.5 -92t-55 -70.5t-85 -45.5t-110.5 -16h-392l1 10h34q42 0 59.5 15.5t23.5 56.5l74 532q3 18 3 29q0 26 -14.5 36.5t-49.5 10.5h-34l1 10h381z
M308 690q-8 0 -14.5 -3.5t-8.5 -16.5l-39 -278h149q83 0 129 43.5t46 121.5q0 61 -34.5 97t-92.5 36h-135zM360 10q45 0 80.5 18t61 49t39 73t13.5 89q0 69 -40.5 106t-119.5 37h-149l-48 -340q-1 -5 -1.5 -10.5t-0.5 -9.5q0 -12 15 -12h150z" />
    <glyph glyph-name="C" unicode="C" horiz-adv-x="734" 
d="M681 153q-69 -81 -147 -122.5t-182 -41.5q-67 0 -121.5 21t-93.5 60t-60 94t-21 123q0 91 30.5 168.5t83.5 134.5t126 89t158 32q48 0 80.5 -7.5t56.5 -16.5t43.5 -16.5t42.5 -7.5q20 0 33 12.5t18 41.5h10l-44 -313h-10q2 23 2.5 44.5t-0.5 40.5q-5 111 -59.5 160.5
t-162.5 49.5q-66 0 -122.5 -32.5t-97.5 -89.5t-64.5 -135t-23.5 -168q0 -65 16 -115.5t45 -85t70 -52.5t91 -18q79 0 153 37.5t142 118.5z" />
    <glyph glyph-name="D" unicode="D" horiz-adv-x="772" 
d="M417 700q74 0 134 -20.5t103 -58.5t66 -91.5t23 -119.5q0 -93 -30 -168.5t-83.5 -129t-128.5 -83t-165 -29.5h-345l1 10h34q40 0 58.5 16t24.5 56l75 536q1 7 1.5 13t0.5 11q0 27 -14.5 37.5t-49.5 10.5h-34l1 10h328zM308 690q-20 0 -23 -20l-90 -640v-6q0 -14 17 -14
h116q72 0 130.5 34t100 91t64.5 132t23 158q0 59 -17 108t-48.5 84t-76 54t-98.5 19h-98z" />
    <glyph glyph-name="E" unicode="E" horiz-adv-x="701" 
d="M308 690q-20 0 -23 -20l-44 -312h146q28 0 48.5 6.5t35 22t23.5 40t14 60.5h10l-38 -272h-10q2 14 3 26t1 23q0 46 -20.5 65t-67.5 19h-146l-43 -306q-1 -5 -1.5 -10.5t-0.5 -8.5q0 -13 18 -13h232q28 0 52.5 14t47.5 45t45.5 80.5t46.5 121.5l10 -1l-75 -265l-6 -5h-575
l1 10h34q42 0 60 15t23 57l75 534q1 7 1.5 14t0.5 13q0 27 -14.5 37t-49.5 10h-34l1 10h562l3 -5v-255l-11 -2q-5 74 -14.5 123t-25 77.5t-37.5 40t-53 11.5h-205z" />
    <glyph glyph-name="F" unicode="F" horiz-adv-x="640" 
d="M631 440l-9 -2q-5 74 -14.5 123t-24.5 77.5t-36 40t-49 11.5h-190q-20 0 -23 -20l-45 -322h120q104 0 123 134h10l-39 -277h-10q3 21 3 38q0 95 -89 95h-119l-35 -245q-1 -8 -2 -18t-1 -18q0 -26 17 -36.5t62 -10.5h54l-1 -10h-342l1 10h32q43 0 61.5 16t23.5 58l74 521
q2 10 2.5 19.5t0.5 16.5q0 27 -14.5 38t-49.5 11h-34l1 10h543l4 -5z" />
    <glyph glyph-name="G" unicode="G" horiz-adv-x="763" 
d="M667 91q-38 -23 -74 -41.5t-73.5 -32t-77.5 -21t-85 -7.5q-68 0 -123 21.5t-94.5 61.5t-61 96.5t-21.5 126.5q0 90 31 166t85.5 131.5t129 87t161.5 31.5q44 0 75.5 -7.5t55 -16.5t42 -16.5t38.5 -7.5q23 0 34.5 10.5t16.5 35.5h10l-42 -297h-10q2 20 2.5 39.5t-0.5 36.5
q-5 109 -57.5 160t-155.5 52q-69 0 -127 -31.5t-100 -87.5t-65.5 -134.5t-23.5 -171.5q0 -62 15 -113t42.5 -87t65.5 -56t85 -20q96 0 155 40.5t69 106.5l13 93q3 18 3 27q0 28 -15.5 39.5t-49.5 11.5h-40l2 10h252l-2 -10q-27 0 -39 -11.5t-16 -40.5l-24 -169z" />
    <glyph glyph-name="H" unicode="H" horiz-adv-x="828" 
d="M864 690h-34q-42 0 -59.5 -15.5t-23.5 -56.5l-75 -536q-6 -42 7 -57t55 -15h34l-1 -10h-305l1 10h33q42 0 59.5 15t22.5 57l36 254h-376l-35 -254q-6 -42 7 -57t55 -15h32l-1 -10h-305l1 10h34q42 0 59.5 15.5t23.5 56.5l75 536q6 42 -7 57t-55 15h-34l1 10h305l-1 -10
h-32q-42 0 -59.5 -15.5t-23.5 -56.5l-38 -272h375l38 272q6 42 -6.5 57t-54.5 15h-33l1 10h305z" />
    <glyph glyph-name="I" unicode="I" horiz-adv-x="357" 
d="M361 690q-42 0 -60 -15t-23 -57l-74 -526q-3 -21 -3 -34q0 -27 14.5 -37.5t49.5 -10.5h32l-1 -10h-305l1 10h34q42 0 59.5 15.5t23.5 56.5l74 529q3 19 3 32q0 26 -14.5 36.5t-49.5 10.5h-34l1 10h305l-1 -10h-32z" />
    <glyph glyph-name="J" unicode="J" horiz-adv-x="429" 
d="M437 690q-41 0 -58.5 -15.5t-23.5 -56.5l-64 -459q-11 -78 -59.5 -123.5t-122.5 -45.5q-49 0 -83 27.5t-34 75.5q0 38 20.5 59t47.5 21q26 0 42.5 -17t16.5 -40q0 -26 -16.5 -43t-42.5 -17q-20 0 -36.5 14t-20.5 37q-1 -5 -1 -7.5v-6.5q0 -43 31.5 -68t75.5 -25
q38 0 64 15.5t42.5 39t24 50t7.5 47.5q0 49 -41 71l54 383q3 21 3 35q0 28 -14.5 38.5t-49.5 10.5h-44l2 10h318l-2 -10h-36z" />
    <glyph glyph-name="K" unicode="K" horiz-adv-x="775" 
d="M787 690q-22 0 -41.5 -6t-43.5 -20.5t-55 -39.5t-76 -63l-219 -177l7 -10h51q8 0 13 -2t9 -9l188 -298q19 -32 40 -43.5t62 -11.5l-1 -10h-280l1 10h44q39 0 39 28q0 8 -4.5 18t-12.5 23l-182 284l-95 -77l-27 -198q-3 -21 -3 -32q0 -46 64 -46h31l-1 -10h-304l1 10h34
q42 0 60 15t23 57l74 527q3 21 3 34q0 26 -14.5 36.5t-49.5 10.5h-34l1 10h305l-1 -10h-32q-42 0 -60 -15.5t-23 -56.5l-44 -314l324 262q28 23 42 44t14 38q0 19 -18 30.5t-51 11.5h-37l1 10h279z" />
    <glyph glyph-name="L" unicode="L" horiz-adv-x="672" 
d="M201 44q-1 -7 -1.5 -11.5t-0.5 -8.5q0 -14 15 -14h204q30 0 55 10t49 37t49 75t55 125l9 -2l-73 -250l-6 -5h-565l1 10h38q42 0 60 15t23 57l74 528q3 21 3 32q0 27 -14.5 37.5t-49.5 10.5h-34l1 10h305l-1 -10h-32q-42 0 -60 -15t-23 -57z" />
    <glyph glyph-name="M" unicode="M" horiz-adv-x="969" 
d="M969 690q-42 0 -61 -16.5t-25 -58.5l-74 -530q-1 -8 -1.5 -14.5t-0.5 -12.5q0 -27 14.5 -37.5t49.5 -10.5h38l-1 -10h-305l1 10h28q42 0 60 16t23 58l81 569l-379 -653h-7l-232 607l-68 -480q-3 -26 -3 -46q0 -39 16.5 -55t53.5 -16h43l-1 -10h-247l1 10h33q43 0 64 26
t30 91l69 490q1 5 1.5 11.5t0.5 11.5q0 28 -15 39t-50 11h-35l1 10h173l222 -594l344 594h195l-1 -10h-36z" />
    <glyph glyph-name="N" unicode="N" horiz-adv-x="731" 
d="M765 690q-24 0 -41.5 -7t-30 -24t-20.5 -44.5t-14 -68.5l-76 -546h-79l-326 607l-67 -479q-1 -8 -2 -17t-1 -15q0 -48 31.5 -67t100.5 -19h51l-1 -10h-318l1 10h21q50 0 73.5 26t33.5 92l68 488q1 7 1.5 14t0.5 12q0 27 -14 37.5t-49 10.5h-27l1 10h162l338 -632l67 478
q2 13 3 25t1 23q0 54 -29 75t-99 21h-33l1 10h294l-1 -10h-21z" />
    <glyph glyph-name="O" unicode="O" horiz-adv-x="780" 
d="M467 711q65 0 118 -20t90.5 -57t58 -89t20.5 -115q0 -95 -31 -175.5t-86 -139.5t-129.5 -92.5t-161.5 -33.5q-66 0 -119.5 20.5t-92 58t-59 90t-20.5 117.5q0 93 31.5 172.5t86.5 138t130.5 92t163.5 33.5zM459 701q-67 0 -123 -39t-96.5 -102.5t-63 -144t-22.5 -162.5
q0 -59 14.5 -106t41 -80t64 -50.5t83.5 -17.5q66 0 121 41t94.5 106.5t61.5 148t22 166.5q0 55 -14 99.5t-39.5 75.5t-62 48t-81.5 17z" />
    <glyph glyph-name="P" unicode="P" horiz-adv-x="675" 
d="M441 700q51 0 92.5 -12t71 -34.5t45.5 -54t16 -70.5q0 -50 -19 -90.5t-54 -69t-84.5 -43.5t-109.5 -15h-161l-31 -216q-1 -11 -1.5 -18t-0.5 -14q0 -29 18 -41t63 -12h60l-1 -10h-354l1 10h38q42 0 59.5 15t22.5 57l75 534q1 6 1.5 12t0.5 12q0 28 -14.5 39t-48.5 11h-38
l1 10h352zM381 321q91 0 141 56.5t50 157.5q0 74 -39.5 114.5t-113.5 40.5h-107q-20 0 -23 -20l-50 -349h142z" />
    <glyph glyph-name="Q" unicode="Q" horiz-adv-x="786" 
d="M-9 -235q52 100 125 159.5t161 71.5q-48 14 -88 41t-69.5 65t-45.5 87t-16 107q0 88 31 164t85.5 132t129 87.5t161.5 31.5q62 0 115.5 -22t93 -61t62 -92.5t22.5 -116.5q0 -94 -31.5 -173t-87.5 -136t-132.5 -89t-165.5 -32q-54 0 -98.5 -13t-80 -34.5t-63 -49
t-48.5 -55.5q65 58 153 58q32 0 59 -6.5t50.5 -15.5t46.5 -20.5t47 -20.5t51.5 -15.5t60.5 -6.5q69 0 115 41t53 109h10q0 -5 -1 -12.5t-2 -13.5q-7 -48 -25 -86.5t-46 -66t-63.5 -42t-77.5 -14.5q-37 0 -67.5 10t-57 24.5t-50 32t-47 32t-48.5 24.5t-53 10q-48 0 -87 -21
t-73 -76zM456 701q-64 0 -119 -34t-95 -92.5t-63 -137t-23 -166.5q0 -61 14 -111t39.5 -86t61.5 -55.5t79 -19.5q66 0 122.5 35t98.5 95.5t65.5 141.5t23.5 174q0 55 -15 102t-42 81.5t-64.5 53.5t-82.5 19z" />
    <glyph glyph-name="R" unicode="R" horiz-adv-x="758" 
d="M730 93q-6 -48 -35 -76t-74 -28q-50 0 -78.5 31.5t-28.5 90.5q0 33 5 60.5t5 61.5q0 70 -32.5 96.5t-102.5 26.5h-143l-38 -267q-3 -20 -3 -29q0 -29 15 -39.5t50 -10.5h45l-1 -10h-322l1 10h38q42 0 59.5 15t22.5 57l75 531q3 19 3 28q0 28 -15 38.5t-50 10.5h-38l2 10
h381q98 0 151 -38.5t53 -110.5q0 -38 -14.5 -71.5t-41.5 -58.5t-67 -39.5t-91 -14.5l-1 -2q71 0 114.5 -39t43.5 -122q0 -26 -5.5 -57.5t-5.5 -60.5q0 -41 9.5 -59t31.5 -18q28 0 47.5 23t24.5 61h10zM392 371q86 0 137.5 48.5t51.5 142.5q0 60 -36 92.5t-102 32.5h-131
q-19 0 -22 -21l-42 -295h144z" />
    <glyph glyph-name="S" unicode="S" horiz-adv-x="627" 
d="M86 281q-2 -13 -2.5 -25.5t-0.5 -23.5q2 -57 21.5 -100t52 -72.5t75.5 -44.5t91 -15q36 0 67.5 11t54.5 30.5t36.5 46.5t13.5 60q0 43 -28.5 70t-71.5 47.5t-93.5 38.5t-93.5 43t-71.5 61.5t-28.5 93.5q0 46 17.5 85t49 66.5t76 43t98.5 15.5q48 0 81.5 -9.5t58 -21
t42 -21t33.5 -9.5q17 0 26 13.5t14 47.5h10l-33 -230h-10q-1 34 -10.5 72.5t-33.5 71t-66.5 54t-108.5 21.5q-41 0 -74 -11t-56.5 -31t-36.5 -48t-13 -62q0 -45 29.5 -73.5t73.5 -50.5t96 -41t96 -44t73.5 -60.5t29.5 -89.5q0 -29 -13.5 -63.5t-43 -65.5t-76.5 -51.5
t-114 -20.5q-51 0 -88.5 13.5t-65 29t-46.5 29t-33 13.5q-34 0 -44 -74h-10l40 281h10z" />
    <glyph glyph-name="T" unicode="T" horiz-adv-x="705" 
d="M690 447q-2 69 -9 116t-20.5 75t-33 40t-45.5 12h-110q-11 0 -16 -5t-7 -19l-81 -574q-1 -8 -2 -18t-1 -16q0 -26 15 -37t52 -11h35l-1 -10h-315l1 10h34q43 0 62.5 16t24.5 56l81 572q1 5 1.5 11t0.5 11q0 14 -18 14h-104q-24 0 -44.5 -12t-40.5 -40t-40 -75t-42 -116
l-10 1l60 252h596l-13 -252z" />
    <glyph glyph-name="U" unicode="U" horiz-adv-x="768" 
d="M801 690q-26 0 -44 -5.5t-30 -19t-19 -37.5t-12 -60l-48 -341q-17 -115 -88 -176.5t-189 -61.5q-122 0 -187 51.5t-65 147.5q0 13 1.5 27.5t3.5 30.5l52 360q3 21 3 36q0 27 -15 37.5t-50 10.5h-38l2 10h317l-2 -10h-41q-41 0 -58.5 -15.5t-23.5 -56.5l-52 -374
q-3 -20 -4 -35t-1 -29q0 -85 46.5 -131t134.5 -46q100 0 165 59.5t79 164.5l48 341q3 25 3 46q0 44 -22.5 60t-77.5 16h-32l2 10h266l-2 -10h-22z" />
    <glyph glyph-name="V" unicode="V" horiz-adv-x="761" 
d="M788 691q-22 0 -40 -7t-35 -23.5t-35.5 -44.5t-40.5 -71l-295 -545h-12l-142 590q-8 32 -16 51.5t-18 30.5t-23.5 15t-32.5 4h-23l1 9h293l-1 -9h-30q-35 0 -48.5 -15t-13.5 -39q0 -13 3 -28t7 -32l108 -462l233 434q30 57 30 90q0 28 -20 40t-56 12h-43l1 9h272l-1 -9
h-22z" />
    <glyph glyph-name="W" unicode="W" horiz-adv-x="1198" 
d="M1247 690h-24q-26 0 -46.5 -7.5t-39.5 -25.5t-38.5 -48t-43.5 -75l-287 -534h-12l-110 469l-282 -469h-12l-143 593q-7 29 -15 48t-20.5 30t-31 15t-45.5 4h-22l1 10h336l-1 -10h-42q-40 0 -55 -18t-15 -44q0 -9 1.5 -18t4.5 -23l113 -479l224 376l-30 129q-5 23 -11 38
t-14.5 23.5t-20.5 12t-29 3.5h-24l1 10h293l-1 -10h-45q-32 0 -43 -16t-11 -39q0 -18 7 -50l107 -467l223 419q15 27 24 51.5t9 45.5q0 25 -16.5 40.5t-56.5 15.5h-52l1 10h295z" />
    <glyph glyph-name="X" unicode="X" horiz-adv-x="779" 
d="M821 690h-22q-15 0 -32.5 -5.5t-38 -19t-45 -36t-54.5 -56.5l-181 -213l142 -272q23 -45 48 -61.5t63 -16.5h28l-1 -10h-323l1 10q48 0 68.5 10.5t20.5 33.5q0 15 -13 43l-117 222l-161 -187q-23 -27 -36 -48t-13 -36q0 -19 22 -28.5t71 -9.5l-1 -10h-267l1 10
q55 0 98 20.5t87 72.5l194 226l-143 273q-14 27 -25.5 44t-24 26.5t-30 13.5t-43.5 4h-16l1 10h318l-1 -10h-47q-27 0 -37 -8.5t-10 -23.5q0 -18 16 -48l125 -240l173 204q35 40 35 71q0 20 -17.5 32.5t-55.5 12.5h-43l1 10h286z" />
    <glyph glyph-name="Y" unicode="Y" horiz-adv-x="753" 
d="M802 690h-16q-19 0 -36.5 -6.5t-36 -21t-39 -38.5t-44.5 -59l-199 -287l-26 -192q-1 -7 -1.5 -14t-0.5 -12q0 -29 16 -39.5t55 -10.5h43l-1 -10h-342l1 10h40q49 0 69.5 15.5t26.5 57.5l26 189l-144 361q-14 34 -34 45.5t-62 11.5h-22l1 10h306l-1 -10h-40
q-26 0 -38 -11.5t-12 -28.5q0 -8 2.5 -16.5t6.5 -16.5l129 -323l185 266q35 51 35 81q0 49 -83 49h-27l1 10h263z" />
    <glyph glyph-name="Z" unicode="Z" horiz-adv-x="662" 
d="M110 10h281q35 0 63.5 12t54.5 41t52 76.5t57 118.5l9 -1l-86 -251l-8 -6h-538l-2 5l564 685h-256q-33 0 -58.5 -12.5t-48.5 -42t-45.5 -77.5t-47.5 -119l-10 2l68 255l6 4h509l3 -5z" />
    <glyph glyph-name="bracketleft" unicode="[" horiz-adv-x="312" 
d="M366 774l-2 -10h-131l-122 -874h131l-2 -10h-222l126 894h222z" />
    <glyph glyph-name="backslash" unicode="\" horiz-adv-x="314" 
d="M251 -39l-177 749h10l177 -749h-10z" />
    <glyph glyph-name="bracketright" unicode="]" horiz-adv-x="312" 
d="M-32 -120l2 10h131l122 874h-131l2 10h222l-126 -894h-222z" />
    <glyph glyph-name="asciicircum" unicode="^" horiz-adv-x="499" 
d="M469 231l-162 455l-280 -454l-12 4l285 458h16l164 -459z" />
    <glyph glyph-name="underscore" unicode="_" horiz-adv-x="581" 
d="M-11 -103l2 10h501l-2 -10h-501z" />
    <glyph glyph-name="grave" unicode="`" horiz-adv-x="258" 
d="M244 586q-23 21 -42 35.5t-36.5 26t-32.5 20.5t-30 19q-17 11 -25 22t-10 23q-2 16 7 27t26 11q28 0 54 -38q16 -25 36.5 -60t58.5 -81z" />
    <glyph glyph-name="a" unicode="a" horiz-adv-x="633" 
d="M504 90q-3 -23 -3 -35q0 -25 12.5 -35t41.5 -10h29l-1 -10h-177l-5 5l14 98h-2q-11 -22 -29 -42.5t-42 -36.5t-51.5 -25.5t-57.5 -9.5q-44 0 -79.5 15t-61 41.5t-39 63.5t-13.5 81q0 70 23.5 129t65.5 101.5t100 66t127 23.5q21 0 40.5 -1t42.5 -4t51 -8t64 -12l5 -6z
M469 489q-33 6 -58 8.5t-55 2.5q-47 0 -87.5 -23.5t-70 -66t-46.5 -101.5t-17 -129q0 -81 34 -125t91 -44q27 0 54 12t49 31.5t37 44t19 50.5z" />
    <glyph glyph-name="b" unicode="b" horiz-adv-x="640" 
d="M224 397h3q10 22 29 42.5t43.5 36t53.5 25t60 9.5q43 0 77.5 -14.5t59 -40.5t37.5 -62t13 -80q0 -70 -23 -129.5t-64.5 -102.5t-98 -67.5t-123.5 -24.5q-49 0 -102 10t-104 30l90 641q3 21 3 30q0 23 -13 31.5t-43 8.5h-41l1 10l188 5l4 -5zM186 109q-2 -11 -3 -20
t-1 -18q0 -72 111 -72q45 0 84 26.5t67.5 72t44.5 105t16 125.5q0 75 -31 118t-87 43q-29 0 -57 -12t-51 -31.5t-38.5 -44.5t-19.5 -50z" />
    <glyph glyph-name="c" unicode="c" horiz-adv-x="559" 
d="M505 78q-62 -47 -119 -68t-120 -21q-54 0 -96 15.5t-70.5 43.5t-43.5 67.5t-15 87.5q0 67 24 123.5t66.5 97.5t100.5 64t126 23q83 0 129 -39.5t46 -99.5q0 -41 -17.5 -63.5t-49.5 -22.5q-24 0 -38.5 14.5t-14.5 37.5q0 26 17 43t44 17q17 0 31.5 -12t16.5 -32q1 6 1 9.5
v8.5q0 27 -11 50t-31 40t-48.5 26.5t-62.5 9.5q-50 0 -93 -22t-74.5 -61.5t-49.5 -93.5t-18 -117q0 -93 41 -147.5t111 -54.5q52 0 103.5 20.5t108.5 64.5z" />
    <glyph glyph-name="d" unicode="d" horiz-adv-x="638" 
d="M504 90q-3 -23 -3 -35q0 -25 14 -35t49 -10h30l-1 -10h-187l-5 5l14 98h-2q-11 -22 -29 -42.5t-41.5 -36.5t-51.5 -25.5t-58 -9.5q-44 0 -79.5 14.5t-61 41t-39 63.5t-13.5 82q0 72 24.5 131t67 101t100 65t124.5 23q30 0 55.5 -4t56.5 -15l24 173q2 11 3 18.5t1 16.5
q0 23 -13 32t-43 9h-36l1 10l186 6l5 -6zM466 481q-32 11 -56 15t-54 4q-45 0 -85 -23.5t-70 -65t-48 -99t-18 -125.5q0 -84 33.5 -130t90.5 -46q27 0 54 12t49.5 31.5t37.5 44t19 50.5z" />
    <glyph glyph-name="e" unicode="e" horiz-adv-x="550" 
d="M493 80q-60 -49 -114.5 -70t-112.5 -21q-51 0 -92.5 15t-71 42.5t-45.5 67t-16 89.5q0 65 21.5 121.5t60.5 98t92.5 65t117.5 23.5q88 0 135.5 -47t47.5 -127q0 -20 -3 -42l-5 -5h-364q-9 -45 -9 -99q0 -92 40.5 -140.5t111.5 -48.5q50 0 98.5 20.5t102.5 64.5zM401 300
q17 0 24.5 16.5t7.5 58.5q0 57 -27.5 91.5t-78.5 34.5q-32 0 -60.5 -14.5t-52 -40.5t-41 -63.5t-27.5 -82.5h255z" />
    <glyph glyph-name="f" unicode="f" horiz-adv-x="340" 
d="M164 587q12 84 62.5 129t120.5 45q52 0 83 -28.5t31 -72.5q0 -37 -17.5 -59t-47.5 -22q-21 0 -37 13.5t-16 38.5q0 26 16.5 42.5t42.5 16.5q20 0 34 -13.5t14 -33.5q1 5 1 8.5v7.5q0 42 -29 67t-75 25q-42 0 -72.5 -16t-50.5 -40.5t-29.5 -55t-9.5 -59.5q0 -80 93 -80h77
l-2 -10h-112l-55 -399q-3 -20 -3 -30q0 -29 18.5 -40t62.5 -11h22l-1 -10h-307l1 10h33q41 0 58.5 15.5t23.5 56.5l57 408h-82l2 10h82v1z" />
    <glyph glyph-name="g" unicode="g" horiz-adv-x="540" 
d="M200 163q-63 12 -95.5 48.5t-32.5 90.5q0 43 18 81t50 66.5t76 44.5t96 16q30 0 56 -7.5t47 -21.5q29 1 57 11t50.5 26.5t37.5 39t18 47.5q-5 -17 -18 -28.5t-32 -11.5q-21 0 -34.5 12.5t-13.5 35.5q0 25 16 40.5t42 15.5q22 0 36.5 -15t14.5 -40q0 -24 -12.5 -48.5
t-34.5 -44.5t-52 -33.5t-64 -14.5q24 -20 38 -46t14 -58q0 -46 -17.5 -85.5t-48 -68t-73 -44.5t-92.5 -16q-47 0 -79.5 -6.5t-53 -17.5t-30 -26t-9.5 -32q0 -26 24.5 -40.5t70.5 -14.5q18 0 40 2t45.5 5t48 5t47.5 2q61 0 94.5 -30t33.5 -81q0 -42 -19.5 -76t-54.5 -57
t-85.5 -35.5t-111.5 -12.5q-86 0 -138.5 28.5t-52.5 82.5q0 53 43 84.5t117 31.5v4h-25q-57 0 -90 21t-33 59q0 45 43 76.5t127 33.5zM248 165q31 0 58 17t46.5 46.5t30.5 68.5t11 83q0 55 -25 87.5t-72 32.5q-31 0 -57.5 -18.5t-45.5 -49t-29.5 -69t-10.5 -78.5
q0 -62 25 -91t69 -29zM176 -43q-69 0 -109 -28.5t-40 -75.5q0 -50 50.5 -76.5t132.5 -26.5q102 0 163.5 33t69.5 93q5 37 -28.5 59t-97.5 22h-141z" />
    <glyph glyph-name="h" unicode="h" horiz-adv-x="659" 
d="M477 350q3 22 3 38q0 47 -23.5 74t-65.5 27q-32 0 -60.5 -12t-51.5 -31.5t-38 -44t-18 -49.5l-38 -269q-1 -8 -1.5 -14.5t-0.5 -11.5q0 -26 13.5 -36.5t47.5 -10.5h23l-2 -10h-287l2 10h32q42 0 59.5 15t22.5 57l85 592q1 7 1.5 13.5t0.5 11.5q0 23 -13 32t-43 9h-41
l1 10l189 5l4 -5l-51 -352h2q10 21 28.5 41.5t43 36t54 25.5t63.5 10q69 0 109 -35.5t40 -98.5q0 -16 -3 -38l-34 -250q-3 -21 -3 -31q0 -27 14 -37.5t49 -10.5h25l-2 -10h-278l2 10h22q41 0 57.5 15t21.5 57z" />
    <glyph glyph-name="i" unicode="i" horiz-adv-x="324" 
d="M232 780q26 0 41.5 -16t15.5 -39q0 -32 -21.5 -53t-53.5 -21q-25 0 -41 15.5t-16 39.5q0 32 21.5 53t53.5 21zM184 89q-3 -23 -3 -30q0 -28 14.5 -38.5t49.5 -10.5h30l-2 -10h-294l2 10h30q41 0 58.5 15.5t23.5 56.5l48 344q1 5 1.5 11t0.5 11q0 23 -12.5 32.5t-43.5 9.5
h-36l2 10l184 6l5 -6z" />
    <glyph glyph-name="j" unicode="j" horiz-adv-x="286" 
d="M222 780q25 0 40.5 -16t15.5 -39q0 -32 -21 -53t-53 -21q-26 0 -41.5 15.5t-15.5 39.5q0 32 21.5 53t53.5 21zM129 419q1 6 1.5 13.5t0.5 15.5q0 24 -13 33t-44 9h-35l1 10l185 6l4 -6l-84 -603q-11 -74 -54 -116t-108 -42q-48 0 -77 24.5t-29 66.5q0 35 19 57.5t48 22.5
q21 0 35.5 -13.5t14.5 -35.5q0 -26 -16 -42t-39 -16q-22 0 -35.5 12.5t-14.5 31.5q-1 -5 -1 -15q0 -38 26 -60.5t70 -22.5q35 0 60 14.5t41 36t23.5 46t7.5 44.5q0 27 -14.5 46.5t-38.5 24.5z" />
    <glyph glyph-name="k" unicode="k" horiz-adv-x="624" 
d="M637 490q-21 0 -45 -10.5t-52.5 -27.5t-61 -40.5t-70.5 -48.5l-25 -18l94 -280q11 -32 32.5 -43.5t70.5 -11.5l-1 -10h-173l-6 4l-95 288l-101 -68l-18 -136q-3 -21 -3 -32q0 -46 59 -46h29l-1 -10h-291l1 10h30q42 0 59.5 15t23.5 57l82 588q3 19 3 30q0 23 -13 31.5
t-43 8.5h-36l1 10l186 6l5 -6l-72 -513l191 130q44 29 64 46.5t20 38.5q0 18 -15 28t-50 10h-50l2 10h270z" />
    <glyph glyph-name="l" unicode="l" horiz-adv-x="319" 
d="M275 10l-1 -10h-295l1 10h30q42 0 59.5 15t23.5 57l81 581q2 12 3 21.5t1 14.5q0 23 -13 32t-43 9h-36l1 10l185 6l4 -6l-92 -658q-3 -21 -3 -34q0 -27 14.5 -37.5t49.5 -10.5h30z" />
    <glyph glyph-name="m" unicode="m" horiz-adv-x="1004" 
d="M875 84q-1 -8 -1.5 -14.5t-0.5 -11.5q0 -27 14 -37.5t49 -10.5h25l-2 -10h-278l1 10h23q41 0 57.5 15t21.5 57l39 278q3 16 3 36q0 45 -23 69t-70 24q-30 0 -58.5 -12t-51 -31.5t-37 -44t-18.5 -50.5l-37 -268q-3 -14 -3 -25q0 -27 14.5 -37.5t49.5 -10.5h21l-2 -10h-275
l2 10h23q40 0 56.5 15.5t22.5 56.5l39 280q3 18 3 34q0 45 -23 69t-70 24q-31 0 -59 -12t-50.5 -31t-37.5 -44t-18 -50l-37 -266q-3 -20 -3 -29q0 -27 14 -37t48 -10h23l-2 -10h-288l2 10h33q41 0 58.5 15.5t23.5 56.5l47 340q3 21 3 28q0 23 -13 31.5t-43 8.5h-42l1 10
l194 5l4 -5l-19 -102h3q11 21 29 41.5t42 36t53.5 25.5t62.5 10t59.5 -10t46 -26.5t31 -38t14.5 -45.5h2q10 22 28.5 43.5t43.5 38.5t55.5 27.5t63.5 10.5q70 0 111 -36t41 -95q0 -7 -0.5 -15.5t-1.5 -16.5z" />
    <glyph glyph-name="n" unicode="n" horiz-adv-x="659" 
d="M478 350q3 22 3 38q0 47 -23.5 74t-65.5 27q-32 0 -60.5 -12t-51.5 -31.5t-38 -44t-19 -49.5l-37 -269q-1 -8 -1.5 -14.5t-0.5 -11.5q0 -26 13.5 -36.5t47.5 -10.5h23l-2 -10h-287l2 10h32q42 0 59.5 15t22.5 57l48 345q3 12 3 23q0 23 -13 31.5t-44 8.5h-41l1 10l193 5
l4 -5l-18 -102h2q10 21 28.5 41.5t43 36.5t54 25.5t63.5 9.5q69 0 109 -35.5t40 -98.5q0 -16 -3 -38l-34 -250q-3 -21 -3 -31q0 -27 14 -37.5t49 -10.5h25l-2 -10h-278l2 10h22q41 0 57.5 15t21.5 57z" />
    <glyph glyph-name="o" unicode="o" 
d="M344 511q46 0 86 -13.5t69.5 -40t46.5 -65t17 -89.5q0 -66 -23 -123t-63 -99.5t-95 -67t-119 -24.5q-52 0 -93 16t-69.5 44.5t-43.5 69t-15 88.5q0 63 23 118t63.5 96.5t95.5 65.5t120 24zM338 501q-44 0 -81.5 -29.5t-64.5 -75.5t-42 -103.5t-15 -112.5q0 -85 34 -133
t95 -48q45 0 82.5 29t65 75.5t42.5 105.5t15 119q0 83 -36 128t-95 45z" />
    <glyph glyph-name="p" unicode="p" horiz-adv-x="654" 
d="M241 398q10 22 28 42t41.5 36t52 25.5t59.5 9.5q87 0 139.5 -51t52.5 -149q0 -70 -23.5 -129t-65.5 -101.5t-100 -66.5t-128 -24q-30 0 -57.5 5t-54.5 14l-23 -169q-3 -21 -3 -32q0 -27 15 -37.5t50 -10.5h29l-1 -10h-294l1 10h29q42 0 59.5 15t23.5 57l80 579q3 19 3 30
q0 28 -15 38.5t-50 10.5h-27l1 10h185l4 -5l-14 -97h3zM187 19q30 -11 55.5 -15t56.5 -4q48 0 88 26t69.5 70.5t46 103.5t16.5 125q0 81 -34.5 122.5t-89.5 41.5q-29 0 -56.5 -12t-49.5 -31t-37 -44t-18 -50z" />
    <glyph glyph-name="q" unicode="q" horiz-adv-x="632" 
d="M413 103q-11 -22 -28.5 -42.5t-41 -36t-52 -25t-59.5 -9.5q-42 0 -77.5 13t-61 38.5t-39.5 63t-14 86.5q0 69 23 127.5t64.5 101.5t98 67t123.5 24q52 0 103.5 -10.5t102.5 -29.5l-88 -632q-3 -21 -3 -32q0 -26 14.5 -36.5t49.5 -10.5h25l-2 -10h-290l1 10h32
q42 0 59 15.5t24 56.5l38 271h-2zM455 407q1 6 1.5 12t0.5 11q0 71 -110 71q-49 0 -88 -30.5t-66.5 -78t-42.5 -106t-15 -113.5q0 -78 32.5 -120t90.5 -42q29 0 56.5 12t49.5 31.5t37 44t18 50.5z" />
    <glyph glyph-name="r" unicode="r" horiz-adv-x="471" 
d="M230 396q10 22 28.5 42.5t41.5 36.5t51 25.5t58 9.5t48.5 -17t18.5 -43q0 -32 -19.5 -51.5t-49.5 -19.5q-26 0 -43 14.5t-17 40.5t17 45t43 21q-33 0 -64.5 -13t-57 -35t-42 -49.5t-20.5 -56.5l-36 -258q-3 -12 -3 -25q0 -29 18 -41t63 -12h23l-2 -10h-307l2 10h32
q42 0 59.5 15t22.5 57l49 344q1 6 1.5 12t0.5 11q0 23 -13 32t-44 9h-41l1 10l193 5l4 -5l-18 -104h2z" />
    <glyph glyph-name="s" unicode="s" horiz-adv-x="502" 
d="M58 205q2 -40 14 -77t35 -65.5t56.5 -45.5t79.5 -17q59 0 93.5 25.5t34.5 70.5q0 33 -22 53t-55 34t-71 26.5t-71 30.5t-55 44.5t-22 70.5q0 34 14 62.5t38.5 49.5t58 32.5t73.5 11.5q37 0 61 -6.5t41.5 -14t31 -14t29.5 -6.5q31 0 36 35h9l-28 -197h-9q-2 34 -8.5 68
t-24 61.5t-49.5 45t-84 17.5q-27 0 -50 -8t-39.5 -22t-26 -33t-9.5 -41q0 -35 22.5 -56t56 -35t73 -25.5t73 -27.5t56 -40.5t22.5 -65.5q0 -72 -53 -114.5t-143 -42.5q-39 0 -66.5 10t-48 22.5t-35.5 22.5t-29 10t-23.5 -12.5t-13.5 -38.5h-10l28 202h10z" />
    <glyph glyph-name="t" unicode="t" horiz-adv-x="328" 
d="M325 500l-2 -10h-113l-56 -391q-1 -5 -1.5 -11.5t-0.5 -13.5q0 -32 16.5 -49.5t43.5 -17.5q29 0 49 21t25 58h10q-6 -47 -35 -72t-81 -25q-55 0 -85 26.5t-30 76.5q0 7 1 15.5t2 15.5l52 367h-72l2 10h27q30 0 55 9t44 32t32.5 61.5t21.5 97.5h10l-28 -200h113z" />
    <glyph glyph-name="u" unicode="u" horiz-adv-x="655" 
d="M429 102q-10 -21 -28.5 -41.5t-43 -36.5t-53.5 -25.5t-60 -9.5q-72 0 -112 37.5t-40 105.5q0 14 3 35l34 248q3 18 3 27q0 27 -14.5 37.5t-49.5 10.5h-24l2 10h181l4 -5l-48 -342q-2 -11 -2.5 -18.5t-0.5 -14.5q0 -53 23.5 -81t67.5 -28q29 0 57.5 12t51 31.5t38 44
t18.5 49.5l37 267q2 11 2.5 17t0.5 11q0 26 -14 36.5t-48 10.5h-22l1 10h178l4 -5l-59 -423q-1 -6 -1.5 -11.5t-0.5 -10.5q0 -23 13 -31.5t43 -8.5h41l-1 -10l-188 -5l-4 5l14 102h-3z" />
    <glyph glyph-name="v" unicode="v" horiz-adv-x="607" 
d="M632 490h-27q-33 0 -56 -19.5t-51 -68.5l-225 -402h-10l-124 416q-6 22 -12.5 36t-15 22.5t-20.5 12t-30 3.5h-18l1 10h268l-1 -10h-38q-26 0 -36 -11t-10 -28q0 -8 2 -16t5 -18l87 -313l167 300q8 14 12 24.5t4 21.5q0 40 -55 40h-47l1 10h230z" />
    <glyph glyph-name="w" unicode="w" horiz-adv-x="900" 
d="M924 490h-26q-32 0 -57 -21t-51 -69l-207 -400h-10l-105 384l-203 -384h-10l-115 418q-6 22 -12.5 36t-15 22t-21 11t-30.5 3h-18l1 10h274l-1 -10h-38q-27 0 -36.5 -10.5t-9.5 -27.5q0 -8 2.5 -20t5.5 -23l75 -293l204 384h10l101 -387l150 290q15 27 15 47q0 40 -54 40
h-48l1 10h230z" />
    <glyph glyph-name="x" unicode="x" horiz-adv-x="586" 
d="M588 490h-17q-30 0 -57 -20.5t-69 -67.5l-113 -126l121 -215q9 -17 17 -26.5t17.5 -15t22.5 -7.5t33 -2l-1 -10h-257l1 10q70 0 70 31q0 14 -12 35l-87 152l-121 -137q-12 -13 -19 -27t-7 -25q0 -12 8.5 -20t28.5 -9h40l-1 -10h-209l1 10q24 0 42.5 5.5t36.5 17.5
t37 30.5t42 44.5l116 130l-111 197q-18 32 -34.5 43.5t-47.5 11.5h-13l1 10h265l-1 -10h-42q-19 0 -27 -7.5t-8 -18.5t10 -30l83 -148l106 119q27 30 27 56q0 13 -9.5 21t-31.5 8h-26l1 10h195z" />
    <glyph glyph-name="y" unicode="y" horiz-adv-x="626" 
d="M651 490h-26q-29 0 -53.5 -18.5t-53.5 -69.5l-270 -481q-23 -41 -44 -74.5t-43.5 -57t-48 -36.5t-56.5 -13q-44 0 -74 26.5t-30 70.5q0 37 20.5 59.5t49.5 22.5q26 0 39.5 -15t13.5 -36q0 -26 -17 -43.5t-46 -17.5q-20 0 -33.5 11.5t-15.5 34.5q-1 -5 -1 -8v-8
q0 -38 27 -62.5t68 -24.5q28 0 52 12.5t45.5 36t41.5 55.5t42 71l41 72l-121 419q-6 22 -12.5 36t-15 22.5t-20.5 12t-30 3.5h-18l1 10h271l-1 -10h-32q-53 0 -53 -43q0 -7 2 -15.5t5 -19.5l81 -312l171 304q15 24 15 44q0 42 -65 42h-37l1 10h231z" />
    <glyph glyph-name="z" unicode="z" horiz-adv-x="531" 
d="M113 10h182q58 0 100.5 42t78.5 135l10 -2l-63 -185h-416l-3 5l401 485h-156q-30 0 -53.5 -8.5t-43 -29.5t-38.5 -56t-40 -87l-10 1l58 190h395l2 -4z" />
    <glyph glyph-name="braceleft" unicode="{" horiz-adv-x="356" 
d="M286 -91q-33 -14 -58.5 -21t-51.5 -7q-41 0 -64 22.5t-23 63.5q0 27 10.5 59.5t23 67t23 68.5t10.5 65q0 52 -34 78t-91 26l2 10q45 0 75.5 12t48.5 33t26 49.5t8 60.5q0 17 -1 37t-2.5 40.5t-2.5 40t-1 35.5q0 55 26 90.5t83 35.5q29 0 56.5 -8.5t56.5 -22.5l-4 -8
q-24 13 -47 13q-65 0 -77 -81l-29 -181q-6 -43 -23 -72t-39.5 -46t-47.5 -24.5t-47 -7.5v-2q20 0 40.5 -7.5t37 -23t27 -39.5t10.5 -57q0 -26 -4 -56.5t-8.5 -62t-8.5 -61.5t-4 -54q0 -31 12 -49t40 -18q13 0 24.5 2.5t25.5 7.5z" />
    <glyph glyph-name="bar" unicode="|" horiz-adv-x="156" 
d="M6 -229l140 1000h10l-140 -1000h-10z" />
    <glyph glyph-name="braceright" unicode="}" horiz-adv-x="356" 
d="M92 747q33 14 58.5 21t51.5 7q41 0 64 -22.5t23 -63.5q0 -27 -10.5 -59.5t-23.5 -67t-23.5 -68.5t-10.5 -65q0 -52 34.5 -78t91.5 -26l-2 -10q-45 0 -75.5 -12t-49 -33t-26 -49.5t-7.5 -60.5q0 -17 1 -37t2.5 -40.5t2.5 -40t1 -35.5q0 -55 -26.5 -90.5t-83.5 -35.5
q-29 0 -56 8.5t-56 22.5l4 8q24 -13 47 -13q65 0 77 81l28 181q7 43 24 72t39.5 46t47 24.5t47.5 7.5v2q-20 0 -40.5 7.5t-37 23t-27 39.5t-10.5 57q0 26 4 56.5t8.5 62t8.5 61.5t4 54q0 31 -12.5 49t-39.5 18q-13 0 -24.5 -2.5t-25.5 -7.5z" />
    <glyph glyph-name="asciitilde" unicode="~" horiz-adv-x="634" 
d="M36 230q7 44 38 68t73 24q41 0 79.5 -17t79 -37.5t86 -37.5t101.5 -17q38 0 67 22.5t34 64.5h10q-6 -47 -37.5 -72t-74.5 -25q-57 0 -103.5 17t-87 37.5t-78 37.5t-77.5 17q-38 0 -66 -21.5t-34 -60.5h-10z" />
    <glyph glyph-name="exclamdown" unicode="&#xa1;" horiz-adv-x="235" 
d="M143 406q-22 0 -34.5 13.5t-12.5 33.5q0 28 18 45.5t44 17.5q21 0 34.5 -13.5t13.5 -33.5q0 -28 -18.5 -45.5t-44.5 -17.5zM134 314q-15 -113 -18.5 -191.5t-2 -132.5t4.5 -88t1 -57q-2 -31 -18.5 -48t-44.5 -17q-21 0 -34.5 13t-13.5 36q0 19 4.5 37.5t13 43.5t19.5 58
t23.5 81t27 112.5t28.5 152.5h10z" />
    <glyph glyph-name="cent" unicode="&#xa2;" horiz-adv-x="488" 
d="M438 193q-48 -32 -94 -46.5t-94 -15.5l-17 -117h-10l17 117q-87 1 -137 46.5t-50 123.5q0 52 18.5 97.5t51 79t77.5 54t99 23.5l18 122h10l-18 -122h7q63 0 101.5 -27.5t38.5 -72.5q0 -29 -15.5 -47.5t-40.5 -18.5q-22 0 -34 12t-12 32q0 23 14.5 36.5t35.5 13.5
q18 0 29.5 -10.5t11.5 -28.5q1 5 1 12q0 38 -32.5 62.5t-86.5 24.5q-43 0 -78 -19t-59.5 -52t-38 -76.5t-13.5 -92.5q0 -78 32 -119t89 -41q47 0 90 14.5t85 43.5z" />
    <glyph glyph-name="sterling" unicode="&#xa3;" horiz-adv-x="692" 
d="M606 220q5 -16 8 -33.5t3 -36.5q0 -32 -8.5 -61.5t-27 -52.5t-47.5 -37t-70 -14q-35 0 -60.5 11t-46.5 28t-39 37.5t-36 40.5q-21 -53 -60 -82.5t-92 -29.5q-43 0 -67.5 23.5t-24.5 64.5q0 48 33.5 76.5t90.5 28.5q39 0 67.5 -13.5t52.5 -32.5q9 34 9 73q0 37 -11.5 65.5
t-27.5 53.5h-132l2 10h123q-12 18 -25 35.5t-23 36.5t-16.5 40.5t-6.5 47.5q0 45 17.5 84t52 67.5t84 44.5t114.5 16q84 0 130.5 -36.5t46.5 -96.5q0 -43 -19 -65.5t-53 -22.5q-23 0 -39.5 15t-16.5 41q0 28 18 45t44 17q22 0 37 -14.5t17 -35.5q1 6 1 10.5v9.5
q0 54 -41.5 87t-112.5 33q-43 0 -78 -14t-60 -40.5t-39 -63.5t-15 -82q-1 -47 6.5 -85t15.5 -74h142l-2 -10h-138q7 -29 11.5 -59t3.5 -64q-2 -43 -10 -75q16 -13 32.5 -26t35.5 -23.5t41 -17t49 -6.5q64 0 101.5 31.5t45.5 89.5q3 20 2 39zM131 0q52 0 88.5 30.5t54.5 79.5
q-24 25 -52 42t-70 17q-48 0 -76 -24t-28 -66q0 -36 22 -57.5t61 -21.5z" />
    <glyph glyph-name="currency" unicode="&#xa4;" horiz-adv-x="537" 
d="M445 522q23 -24 36 -55.5t13 -68.5q0 -60 -24.5 -109t-67.5 -81l58 -70l-8 -7l-58 72q-29 -20 -64 -30.5t-74 -10.5q-38 0 -70 13t-56 36l-82 -76l-6 7l82 75q-23 24 -35.5 55.5t-12.5 67.5q0 60 25 109.5t69 81.5l-60 68l8 7l61 -69q59 39 135 39q38 0 70 -12.5
t55 -35.5l83 73l6 -6zM257 172q48 0 89.5 17t72 47t48 71t17.5 89q0 36 -12.5 67t-35.5 54t-54.5 36t-68.5 13q-48 0 -89.5 -17t-72 -47t-48 -71t-17.5 -89q0 -36 12.5 -67t35.5 -54t54 -36t69 -13z" />
    <glyph glyph-name="yen" unicode="&#xa5;" horiz-adv-x="692" 
d="M741 692q-26 -2 -47 -7.5t-39 -17.5t-33.5 -30.5t-31.5 -45.5l-176 -297l-2 -12h219l-1 -10h-220l-12 -88h219l-1 -10h-219l-12 -83q-1 -5 -2 -13.5t-1 -15.5q0 -32 23 -42t83 -10l-1 -10h-326l1 10q35 0 58.5 3t38 11.5t21.5 22.5t10 36l13 91h-223l1 10h223l13 88h-223
l1 10h219l-150 364q-11 26 -30 35t-59 9l1 10h301l-1 -10q-51 0 -74 -8.5t-23 -31.5q0 -11 8 -32l122 -311l149 253q14 24 22 43.5t8 35.5q0 26 -26 39t-85 13l1 9h264z" />
    <glyph glyph-name="brokenbar" unicode="&#xa6;" horiz-adv-x="156" 
d="M94 406l51 365h10l-51 -365h-10zM5 -229l51 365h10l-51 -365h-10z" />
    <glyph glyph-name="section" unicode="&#xa7;" horiz-adv-x="562" 
d="M502 586q-2 28 -11 57t-27 53t-46 39t-70 15q-66 0 -104 -35.5t-38 -91.5q0 -35 23 -56.5t58 -37t75 -28.5t75 -31t58 -44.5t23 -69.5q0 -32 -13.5 -61.5t-38.5 -53t-60 -39t-77 -19.5q26 -10 49.5 -22t41 -28t28 -36.5t10.5 -48.5q0 -33 -13.5 -64.5t-40 -56
t-65.5 -39.5t-90 -15q-41 0 -71.5 11t-52 24t-35.5 24t-23 11q-12 0 -21.5 -13t-13.5 -41h-10l27 189h10q2 -41 14.5 -76.5t35.5 -62t56.5 -41.5t77.5 -15q32 0 58 9.5t44.5 25.5t28.5 37t10 43q0 33 -23.5 54t-58.5 36.5t-76 30t-76 35t-58.5 51.5t-23.5 80q0 22 9 47
t27 48.5t45.5 43.5t64.5 33q-35 19 -57.5 47t-22.5 75q0 41 15.5 74.5t43.5 57t66 36.5t83 13q32 0 54.5 -7t39.5 -15t30.5 -15t27.5 -7t21.5 11t9.5 28h10l-23 -169h-10zM315 187q30 3 55 15t43.5 29t28.5 38t10 43q0 33 -22.5 52.5t-57 33t-75 25.5t-75.5 30
q-52 -20 -74 -53.5t-22 -70.5q0 -32 17 -53.5t44 -37t60.5 -27.5t67.5 -24z" />
    <glyph glyph-name="dieresis" unicode="&#xa8;" horiz-adv-x="418" 
d="M391 716q19 0 31.5 -12.5t12.5 -32.5q0 -23 -17 -40t-40 -17q-20 0 -32.5 12.5t-12.5 31.5q0 25 17.5 41.5t40.5 16.5zM158 716q20 0 32 -12t12 -32q0 -25 -17.5 -41.5t-40.5 -16.5q-20 0 -32.5 12.5t-12.5 30.5q0 26 18 42.5t41 16.5z" />
    <glyph glyph-name="copyright" unicode="&#xa9;" horiz-adv-x="851" 
d="M494 720q73 -1 133 -24t102.5 -64.5t66 -99t23.5 -126.5q0 -92 -32.5 -170t-90 -135.5t-136 -90.5t-170.5 -34h-4h-2q-73 1 -133 24t-102.5 64.5t-65.5 99t-23 126.5q0 91 32.5 169.5t89.5 136t135.5 90.5t170.5 34h4h2zM387 -14q90 0 167.5 32t134 88.5t88.5 133.5
t32 167q0 67 -22.5 123t-64.5 95.5t-100.5 62t-130.5 22.5q-90 0 -167.5 -32t-133.5 -88.5t-88 -133.5t-32 -167q0 -68 22.5 -123.5t64 -95t100 -62t130.5 -22.5zM622 228q-39 -54 -93 -83.5t-122 -29.5q-41 0 -75.5 12.5t-60.5 37.5t-40.5 62t-14.5 85q0 55 19.5 102.5
t54 83t81 56t101.5 20.5q29 0 50.5 -6t38.5 -13t31 -13t29 -6q14 0 21.5 7t9.5 24h10l-27 -193h-10q-3 91 -39 140t-107 49q-39 0 -72 -19t-57 -52t-38 -78t-14 -98q0 -94 35 -141t92 -47q53 0 103.5 28.5t86.5 76.5z" />
    <glyph glyph-name="ordfeminine" unicode="&#xaa;" horiz-adv-x="399" 
d="M354 466q-1 -6 -1.5 -11.5t-0.5 -9.5q0 -12 7 -17t25 -5h14v-7h-98l-5 2l6 71h-3q-6 -11 -16 -25t-24.5 -26t-33.5 -20t-43 -8q-48 0 -78 29.5t-30 81.5q0 43 15.5 78t43.5 60t67 39t86 14q8 0 31.5 -2t71.5 -9l3 -3zM334 697q-14 3 -27.5 4.5t-21.5 1.5q-35 0 -63 -15.5
t-48 -41.5t-30.5 -59t-10.5 -69q0 -45 16.5 -69t45.5 -24q22 0 40.5 9.5t32.5 25.5t23.5 35t13.5 39zM70 343l2 10h298l-2 -10h-298z" />
    <glyph glyph-name="guillemotleft" unicode="&#xab;" horiz-adv-x="661" 
d="M411 489q-35 -31 -76.5 -68t-81 -70.5t-72.5 -60.5t-51 -38q15 -10 41 -36t56 -60t61.5 -71.5t57.5 -71.5l-6 -6q-76 72 -158.5 135t-161.5 105v6q44 21 93 48t99 58.5t99.5 66t95.5 69.5zM662 489q-35 -31 -76.5 -68t-80.5 -70.5t-72.5 -60.5t-51.5 -38q15 -10 41 -36
t56 -60t61.5 -71.5t57.5 -71.5l-6 -6q-76 72 -158.5 135t-161.5 105v6q45 21 93.5 48t98.5 58.5t99.5 66t95.5 69.5z" />
    <glyph glyph-name="logicalnot" unicode="&#xac;" horiz-adv-x="606" 
d="M531 120h-10l35 250h-501l1 10h511l-1 -10z" />
    <glyph glyph-name="uni00AD" unicode="&#xad;" horiz-adv-x="460" 
d="M39 235l2 10h380l-2 -10h-380z" />
    <glyph glyph-name="registered" unicode="&#xae;" horiz-adv-x="326" 
d="M235 760q54 0 87 -32.5t33 -83.5q0 -34 -12 -63t-33.5 -50t-50.5 -33t-62 -12q-54 0 -87.5 33.5t-33.5 84.5q0 33 12 61.5t33.5 49.5t50.5 33t63 12zM234 752q-32 0 -59 -11.5t-47 -31t-31.5 -47t-11.5 -58.5q0 -48 31 -79t82 -31q31 0 58 11.5t47 31.5t31.5 47.5
t11.5 59.5q0 48 -30.5 78t-81.5 30zM237 693q21 0 30 -7.5t9 -18.5q0 -16 -13.5 -25.5t-26.5 -9.5q20 0 26 -10.5t6 -22.5q0 -3 -0.5 -7.5t-0.5 -7.5q0 -9 6 -9q3 0 5.5 4.5t4.5 10.5h5q-5 -27 -32 -27q-24 0 -24 27q0 4 0.5 9.5t0.5 8.5q0 20 -19 20h-17l-4 -29
q-1 -5 -1.5 -8.5t-0.5 -6.5q0 -14 21 -14l-1 -5h-80l1 5q13 0 17.5 3t6.5 12l11 79q1 5 1 7.5v4.5q0 12 -20 12l1 5h88zM217 688q-12 0 -14 -12l-6 -43h20q14 0 20 12t6 25q0 18 -18 18h-8z" />
    <glyph glyph-name="macron" unicode="&#xaf;" horiz-adv-x="390" 
d="M89 618l1 10h315l-1 -10h-315z" />
    <glyph glyph-name="degree" unicode="&#xb0;" horiz-adv-x="327" 
d="M236 763q54 0 87 -34t33 -85q0 -34 -12 -63t-33 -50t-50 -33t-63 -12q-54 0 -87.5 34t-33.5 85q0 34 12 63t33.5 50t50.5 33t63 12zM235 753q-32 0 -59 -11t-46.5 -31t-31 -47t-11.5 -59q0 -48 30.5 -78.5t81.5 -30.5q31 0 58 11.5t47 31t31 46.5t11 59q0 48 -30.5 78.5
t-80.5 30.5z" />
    <glyph glyph-name="plusminus" unicode="&#xb1;" 
d="M600 415h-268l-34 -239h-10l34 239h-270l1 10h270l34 240h10l-34 -240h268zM558 120l-1 -10h-548l1 10h548z" />
    <glyph glyph-name="uni00B2" unicode="&#xb2;" horiz-adv-x="347" 
d="M61 469q1 5 1 8t1 7q8 48 30.5 78t51.5 50t60.5 34.5t58 31.5t44 41t17.5 63q0 35 -21 55t-57 20q-23 0 -44.5 -6.5t-38 -18.5t-27 -27.5t-13.5 -33.5q7 17 19 23.5t25 6.5q15 0 23.5 -10.5t8.5 -24.5q0 -20 -13 -32.5t-33 -12.5q-17 0 -28 11.5t-11 31.5q0 21 11.5 40
t31.5 33.5t46.5 23t57.5 8.5q56 0 90 -24.5t34 -66.5q0 -32 -16.5 -56.5t-42 -43t-56.5 -31t-60 -19.5q-61 -19 -94.5 -50.5t-45.5 -91.5q9 29 28 42t42 13q17 0 33 -4t32 -8.5t33 -8.5t36 -4q30 0 48.5 14.5t20.5 39.5q3 8 1 21l6 3q9 -18 9 -38q0 -42 -27 -69t-70 -27
q-26 0 -46.5 6t-37.5 13.5t-32.5 13.5t-30.5 6q-32 0 -46 -31z" />
    <glyph glyph-name="uni00B3" unicode="&#xb3;" horiz-adv-x="346" 
d="M194 682q51 0 85.5 27.5t34.5 77.5q0 32 -21 50.5t-56 18.5q-38 0 -68 -19t-32 -54q9 32 40 32q15 0 24.5 -11t9.5 -25q0 -18 -11.5 -29.5t-31.5 -11.5q-18 0 -29.5 11.5t-11.5 30.5q0 42 38.5 65.5t97.5 23.5q50 0 80.5 -22t30.5 -60q0 -24 -11.5 -44.5t-32.5 -34.5
t-49.5 -22t-62.5 -8q67 0 102 -24.5t35 -66.5q0 -29 -12.5 -52t-34 -40t-52 -26t-66.5 -9q-52 0 -81.5 23t-29.5 60q0 20 12.5 34t32.5 14q15 0 25 -10.5t10 -26.5q0 -17 -11 -27t-26 -10q-13 0 -22.5 6t-11.5 20q0 -30 24 -51t66 -21q49 0 81.5 34t32.5 86q0 41 -25.5 62
t-73.5 19z" />
    <glyph glyph-name="acute" unicode="&#xb4;" horiz-adv-x="232" 
d="M90 591q38 46 58.5 81t36.5 59q26 39 54 39q17 0 26 -11t7 -27q-2 -12 -10 -23t-25 -22q-15 -10 -30 -19t-32.5 -20.5t-37 -26t-41.5 -35.5z" />
    <glyph glyph-name="paragraph" unicode="&#xb6;" horiz-adv-x="469" 
d="M398 690l-89 -632q-11 -79 -57 -123t-118 -44q-51 0 -80 25.5t-29 67.5q0 38 19 61t51 23q24 0 39 -15t15 -40q0 -28 -16 -45t-42 -17q-25 0 -39.5 13.5t-15.5 36.5q-1 -5 -1 -9v-8q0 -38 27 -60.5t74 -22.5q67 0 110 41.5t54 115.5l44 316h-97q-71 0 -113.5 38
t-42.5 102q0 42 14.5 76.5t41 58.5t63.5 37.5t83 13.5h220l-2 -10h-113z" />
    <glyph glyph-name="periodcentered" unicode="&#xb7;" horiz-adv-x="227" 
d="M122 310q21 0 34 -13.5t13 -33.5q0 -28 -18.5 -45.5t-44.5 -17.5q-21 0 -34 13.5t-13 33.5q0 27 18.5 45t44.5 18z" />
    <glyph glyph-name="cedilla" unicode="&#xb8;" horiz-adv-x="307" 
d="M35 -95q17 14 40 21.5t45 7.5q39 0 63 -20.5t24 -48.5q0 -45 -38.5 -73t-99.5 -28q-53 0 -93 28l6 8q16 -11 36 -17t40 -6q39 0 64.5 25t25.5 63q0 24 -13.5 37.5t-36.5 13.5q-18 0 -38.5 -8t-44.5 -28l-5 4l81 116h10z" />
    <glyph glyph-name="uni00B9" unicode="&#xb9;" horiz-adv-x="254" 
d="M198 535q-1 -8 -1.5 -14t-0.5 -9q0 -17 14.5 -23.5t52.5 -6.5l-1 -10h-205l1 10q42 0 59 8t20 31l34 243q1 7 1.5 13.5t0.5 10.5q0 21 -23 22q-10 1 -24 -1t-34 -6v9q15 2 33.5 7t38 12.5t39 17.5t35.5 23l7 -4z" />
    <glyph glyph-name="ordmasculine" unicode="&#xba;" horiz-adv-x="387" 
d="M270 710q59 0 94.5 -29.5t35.5 -85.5q0 -36 -13.5 -69t-38.5 -59t-61 -41.5t-80 -15.5q-60 0 -96.5 31t-36.5 87q0 37 13.5 70.5t38.5 58t61.5 39t82.5 14.5zM258 702q-35 0 -58.5 -21.5t-38 -51.5t-21 -63t-6.5 -56q0 -47 22.5 -69.5t60.5 -22.5q34 0 57.5 21t38 51
t21 63t6.5 56q0 44 -21 68.5t-61 24.5zM75 343l2 10h270l-2 -10h-270z" />
    <glyph glyph-name="guillemotright" unicode="&#xbb;" horiz-adv-x="661" 
d="M250 13q35 31 76 67.5t80.5 70.5t72.5 60.5t52 38.5q-15 10 -41 36t-56 60t-61.5 71.5t-57.5 71.5l6 6q76 -73 158.5 -135.5t161.5 -105.5l-1 -6q-44 -21 -92.5 -48t-98.5 -58.5t-99.5 -65.5t-95.5 -69zM-2 13q35 31 76.5 67.5t81 70.5t72.5 60.5t51 38.5
q-15 10 -40.5 36t-55.5 60t-61.5 71.5t-57.5 71.5l6 6q76 -73 158.5 -135.5t161.5 -105.5l-1 -6q-44 -21 -93 -48t-98.5 -58.5t-99 -65.5t-95.5 -69z" />
    <glyph glyph-name="onequarter" unicode="&#xbc;" horiz-adv-x="919" 
d="M235 376q-1 -8 -1.5 -14t-0.5 -9q0 -18 14 -24.5t52 -6.5l-1 -10h-205l1 10q42 0 59 8t20 31l35 244q1 7 1.5 13.5t0.5 9.5q0 22 -23 23q-10 0 -24 -1.5t-34 -5.5v9q14 2 32.5 7t38 12t39 17t36.5 23l7 -3zM123 -39l-11 11l662 737l10 -10zM490 129q28 12 56 34t52 54
t42 73.5t25 91.5q15 -5 31 -5t33 5q-7 -48 -28 -88.5t-51 -73t-68 -56.5t-79 -37h186l13 91q26 11 42.5 35t20.5 53h9l-25 -179h71l-1 -10h-71l-8 -54q-1 -6 -2 -14t-1 -12q0 -17 14 -22t48 -5l-2 -10h-205l2 10q45 0 62.5 7t21.5 30l10 70h-196z" />
    <glyph glyph-name="onehalf" unicode="&#xbd;" horiz-adv-x="919" 
d="M211 397q-1 -8 -1.5 -14t-0.5 -9q0 -18 14 -24.5t52 -6.5l-1 -10h-205l1 10q42 0 59 8t20 31l34 243q2 8 2.5 14.5t0.5 9.5q0 22 -23 22q-22 2 -59 -7l1 9q14 3 32.5 7.5t38 12t39 17.5t36.5 23l7 -4zM100 -31l-11 11l662 737l10 -10zM512 -2q1 5 1 8t1 8q8 48 30.5 77.5
t51.5 49.5t60.5 34.5t58 31.5t44 41t17.5 63q0 35 -21 55t-56 20q-24 0 -45 -6.5t-38 -18.5t-27.5 -27.5t-13.5 -33.5q7 17 19 23.5t25 6.5q15 0 24 -10.5t9 -24.5q0 -19 -13.5 -32t-33.5 -13q-17 0 -28 11.5t-11 31.5q0 21 11.5 40t31.5 33.5t46.5 23t57.5 8.5
q57 0 90.5 -24.5t33.5 -66.5q0 -32 -16.5 -56.5t-42 -43t-56.5 -31t-60 -19.5q-61 -19 -94.5 -50.5t-44.5 -90.5q8 29 27 42t42 13q17 0 33 -4t32 -9t33 -9t36 -4q30 0 48.5 14.5t20.5 39.5q3 12 1 21l6 3q9 -18 9 -38q0 -42 -27 -69t-70 -27q-26 0 -46.5 6t-37.5 13.5
t-32.5 13.5t-30.5 6q-32 0 -46 -31z" />
    <glyph glyph-name="threequarters" unicode="&#xbe;" horiz-adv-x="919" 
d="M211 523q51 0 85 27.5t34 77.5q0 32 -20.5 50.5t-55.5 18.5q-38 0 -68.5 -19.5t-32.5 -53.5q5 16 15.5 23.5t24.5 7.5q16 0 25.5 -10.5t9.5 -25.5q0 -18 -12 -29.5t-32 -11.5q-17 0 -28.5 11.5t-11.5 30.5q0 42 38 66t97 24q50 0 80.5 -22t30.5 -60q0 -25 -11.5 -45
t-32.5 -34.5t-49.5 -22t-62.5 -7.5q67 -1 102 -25t35 -66q0 -29 -12 -52t-34 -40t-52 -26t-66 -9q-52 0 -81.5 22.5t-29.5 59.5q0 20 12 34t32 14q16 0 26 -10.5t10 -25.5q0 -17 -11 -27t-26 -10q-14 0 -23 6t-11 19q0 -29 24 -50.5t66 -21.5q49 0 81 34.5t32 86.5
q0 40 -25 61.5t-74 19.5zM151 -39l-11 11l661 736l10 -9zM502 129q28 12 56 34t52 54t42 73.5t25 91.5q15 -5 31 -5q15 0 32 5q-7 -48 -28 -88.5t-51 -73t-67.5 -56.5t-78.5 -37h185l14 91q26 11 42 35.5t20 53.5h10l-26 -180h71l-1 -10h-71l-7 -54q-2 -6 -2.5 -13.5
t-0.5 -12.5q0 -17 14 -22t48 -5l-2 -10h-206l2 10q45 0 63 7t22 30l9 70h-195z" />
    <glyph glyph-name="questiondown" unicode="&#xbf;" horiz-adv-x="569" 
d="M339 413q-22 0 -35 13.5t-13 34.5q0 29 19 47t45 18q22 0 35.5 -14t13.5 -35q0 -28 -19 -46t-46 -18zM355 315q4 -15 4 -32q0 -38 -19.5 -65t-48.5 -50t-62.5 -45.5t-62.5 -51.5t-48.5 -68.5t-19.5 -96.5q0 -65 38 -103.5t109 -38.5q40 0 76.5 13t65 36.5t47 55
t23.5 69.5q-6 -22 -23 -32.5t-38 -10.5q-22 0 -36 15t-14 36q0 29 18.5 46.5t47.5 17.5q26 0 41 -17t15 -46q0 -28 -13.5 -62t-43.5 -64t-77.5 -50.5t-114.5 -20.5q-48 0 -86.5 11.5t-66 32.5t-42 51t-14.5 67q0 60 25 100.5t62.5 69.5t81.5 50t81.5 43t62.5 47.5t25 63.5
q0 6 -0.5 13.5t-2.5 13.5z" />
    <glyph glyph-name="Agrave" unicode="&#xc0;" horiz-adv-x="749" 
d="M468 786q-23 21 -42 35.5t-36.5 26t-32.5 20.5t-30 19q-17 11 -25 22t-10 23q-2 16 7 27t26 11q28 0 54 -38q16 -25 36.5 -60t58.5 -81zM700 0h-303l1 10h29q38 0 55.5 12.5t21.5 36.5q3 20 -5 52l-25 116h-280l-64 -115q-11 -20 -16 -33t-7 -24q-6 -45 59 -45h52l-1 -10
h-238l1 10h29q31 0 55 24t56 80l326 586h16l133 -599q5 -24 10.5 -41t13.5 -28t20.5 -16.5t32.5 -5.5h29zM396 591l-197 -354h273z" />
    <glyph glyph-name="Aacute" unicode="&#xc1;" horiz-adv-x="749" 
d="M460 791q38 46 58.5 81t36.5 60q25 38 54 38q17 0 26 -11t7 -27q-2 -12 -10 -23t-25 -22q-15 -10 -30.5 -19t-32.5 -20.5t-36.5 -26t-42.5 -35.5zM700 0h-303l1 10h29q38 0 55.5 12.5t21.5 36.5q3 20 -5 52l-25 116h-280l-64 -115q-11 -20 -16 -33t-7 -24q-6 -45 59 -45
h52l-1 -10h-238l1 10h29q31 0 55 24t56 80l326 586h16l133 -599q5 -24 10.5 -41t13.5 -28t20.5 -16.5t32.5 -5.5h29zM396 591l-197 -354h273z" />
    <glyph glyph-name="Acircumflex" unicode="&#xc2;" horiz-adv-x="749" 
d="M312 795l185 165h10l141 -165l-8 -5l-147 106l-176 -108zM700 0h-303l1 10h29q38 0 55.5 12.5t21.5 36.5q3 20 -5 52l-25 116h-280l-64 -115q-11 -20 -16 -33t-7 -24q-6 -45 59 -45h52l-1 -10h-238l1 10h29q31 0 55 24t56 80l326 586h16l133 -599q5 -24 10.5 -41
t13.5 -28t20.5 -16.5t32.5 -5.5h29zM396 591l-197 -354h273z" />
    <glyph glyph-name="Atilde" unicode="&#xc3;" horiz-adv-x="749" 
d="M331 774q-11 18 -15 37t-2 36q4 40 28.5 63.5t61.5 23.5q25 0 48.5 -10t46.5 -21.5t45 -21.5t45 -10q18 0 29 10t13 26q2 10 0.5 21.5t-9.5 24.5l10 6q17 -22 23.5 -42.5t4.5 -40.5q-3 -31 -24 -48.5t-54 -17.5q-26 0 -50 10.5t-47.5 23t-48 23t-51.5 10.5q-24 0 -36 -14
t-15 -36q-1 -11 0.5 -24t6.5 -23zM700 0h-303l1 10h29q38 0 55.5 12.5t21.5 36.5q3 20 -5 52l-25 116h-280l-64 -115q-11 -20 -16 -33t-7 -24q-6 -45 59 -45h52l-1 -10h-238l1 10h29q31 0 55 24t56 80l326 586h16l133 -599q5 -24 10.5 -41t13.5 -28t20.5 -16.5t32.5 -5.5h29
zM396 591l-197 -354h273z" />
    <glyph glyph-name="Adieresis" unicode="&#xc4;" horiz-adv-x="749" 
d="M591 814q-20 0 -32.5 12.5t-12.5 31.5q0 25 17.5 41.5t40.5 16.5q20 0 32 -12.5t12 -32.5q0 -23 -17 -40t-40 -17zM357 814q-19 0 -31.5 12.5t-12.5 30.5q0 26 18 42.5t41 16.5q19 0 31.5 -12t12.5 -32q0 -25 -18 -41.5t-41 -16.5zM700 0h-303l1 10h29q38 0 55.5 12.5
t21.5 36.5q3 20 -5 52l-25 116h-280l-64 -115q-11 -20 -16 -33t-7 -24q-6 -45 59 -45h52l-1 -10h-238l1 10h29q31 0 55 24t56 80l326 586h16l133 -599q5 -24 10.5 -41t13.5 -28t20.5 -16.5t32.5 -5.5h29zM396 591l-197 -354h273z" />
    <glyph glyph-name="Aring" unicode="&#xc5;" horiz-adv-x="749" 
d="M469 765q-39 0 -63 24t-24 61q0 24 9 45t25 36.5t37 24.5t44 9q39 0 63 -24t24 -61q0 -24 -9.5 -45t-25 -36.5t-36.5 -24.5t-44 -9zM495 955q-21 0 -39.5 -8.5t-32.5 -22.5t-22 -33t-8 -41q0 -32 21 -53.5t56 -21.5q21 0 39.5 8t32.5 22t22.5 33t8.5 40q0 34 -21.5 55.5
t-56.5 21.5zM700 0h-303l1 10h29q38 0 55.5 12.5t21.5 36.5q3 20 -5 52l-25 116h-280l-64 -115q-11 -20 -16 -33t-7 -24q-6 -45 59 -45h52l-1 -10h-238l1 10h29q31 0 55 24t56 80l326 586h16l133 -599q5 -24 10.5 -41t13.5 -28t20.5 -16.5t32.5 -5.5h29zM396 591l-197 -354
h273z" />
    <glyph glyph-name="AE" unicode="&#xc6;" horiz-adv-x="1106" 
d="M714 690q-20 0 -23 -20l-44 -312h145q57 0 84 28.5t37 100.5h10l-38 -272h-10q10 74 -8.5 103.5t-75.5 29.5h-146l-44 -318q-3 -20 17 -20h232q28 0 52.5 14t47.5 45t45.5 80.5t46.5 121.5l10 -1l-75 -265l-6 -5h-574l1 10h34q42 0 59.5 15t22.5 57l22 158h-286
l-105 -130q-17 -20 -26.5 -38t-9.5 -32t11 -22t37 -8h60l-1 -10h-237l1 10h20q26 0 59 26.5t75 77.5l452 556q-7 11 -21 15.5t-37 4.5h-34l1 10h561l4 -5v-255l-11 -2q-5 74 -14.5 123t-25.5 77.5t-38 40t-53 11.5h-204zM589 618q4 24 1 41l-332 -409h280z" />
    <glyph glyph-name="Ccedilla" unicode="&#xc7;" horiz-adv-x="734" 
d="M694 404h-10q2 23 2.5 44.5t-0.5 40.5q-5 111 -59.5 160.5t-162.5 49.5q-66 0 -122.5 -32.5t-97.5 -89.5t-64.5 -135t-23.5 -168q0 -65 16 -115.5t45 -85t70 -52.5t91 -18q79 0 153 37.5t142 118.5l8 -6q-66 -79 -142.5 -120.5t-175.5 -43.5l-63 -90q17 14 40.5 21.5
t45.5 7.5q38 0 62.5 -20.5t24.5 -48.5q0 -45 -39 -73t-99 -28q-54 0 -94 28l6 8q17 -11 36.5 -17t39.5 -6q39 0 64.5 25t25.5 63q0 24 -13.5 37.5t-36.5 13.5q-18 0 -38.5 -8t-44.5 -28l-5 4l77 111q-67 0 -121.5 21t-93.5 60t-60 94t-21 123q0 91 30.5 168.5t83.5 134.5
t126 89t158 32q48 0 80.5 -7.5t56.5 -16.5t43.5 -16.5t42.5 -7.5q20 0 33 12.5t18 41.5h10z" />
    <glyph glyph-name="Egrave" unicode="&#xc8;" horiz-adv-x="701" 
d="M416 786q-23 21 -42.5 35.5t-37 26t-32.5 20.5t-30 19q-17 11 -25 22t-10 23q-2 16 7 27t26 11q29 0 54 -38q16 -25 36.5 -60t58.5 -81zM308 690q-20 0 -23 -20l-44 -312h146q28 0 48.5 6.5t35 22t23.5 40t14 60.5h10l-38 -272h-10q2 14 3 26t1 23q0 46 -20.5 65
t-67.5 19h-146l-43 -306q-1 -5 -1.5 -10.5t-0.5 -8.5q0 -13 18 -13h232q28 0 52.5 14t47.5 45t45.5 80.5t46.5 121.5l10 -1l-75 -265l-6 -5h-575l1 10h34q42 0 60 15t23 57l75 534q1 7 1.5 14t0.5 13q0 27 -14.5 37t-49.5 10h-34l1 10h562l3 -5v-255l-11 -2q-5 74 -14.5 123
t-25 77.5t-37.5 40t-53 11.5h-205z" />
    <glyph glyph-name="Eacute" unicode="&#xc9;" horiz-adv-x="701" 
d="M407 791q38 46 58.5 81t36.5 60q26 38 54 38q17 0 26 -11t7 -27q-2 -12 -10 -23t-25 -22q-15 -10 -30 -19t-32.5 -20.5t-37 -26t-41.5 -35.5zM308 690q-20 0 -23 -20l-44 -312h146q28 0 48.5 6.5t35 22t23.5 40t14 60.5h10l-38 -272h-10q2 14 3 26t1 23q0 46 -20.5 65
t-67.5 19h-146l-43 -306q-1 -5 -1.5 -10.5t-0.5 -8.5q0 -13 18 -13h232q28 0 52.5 14t47.5 45t45.5 80.5t46.5 121.5l10 -1l-75 -265l-6 -5h-575l1 10h34q42 0 60 15t23 57l75 534q1 7 1.5 14t0.5 13q0 27 -14.5 37t-49.5 10h-34l1 10h562l3 -5v-255l-11 -2q-5 74 -14.5 123
t-25 77.5t-37.5 40t-53 11.5h-205z" />
    <glyph glyph-name="Ecircumflex" unicode="&#xca;" horiz-adv-x="701" 
d="M259 795l185 165h10l142 -165l-9 -5l-147 106l-176 -108zM308 690q-20 0 -23 -20l-44 -312h146q28 0 48.5 6.5t35 22t23.5 40t14 60.5h10l-38 -272h-10q2 14 3 26t1 23q0 46 -20.5 65t-67.5 19h-146l-43 -306q-1 -5 -1.5 -10.5t-0.5 -8.5q0 -13 18 -13h232q28 0 52.5 14
t47.5 45t45.5 80.5t46.5 121.5l10 -1l-75 -265l-6 -5h-575l1 10h34q42 0 60 15t23 57l75 534q1 7 1.5 14t0.5 13q0 27 -14.5 37t-49.5 10h-34l1 10h562l3 -5v-255l-11 -2q-5 74 -14.5 123t-25 77.5t-37.5 40t-53 11.5h-205z" />
    <glyph glyph-name="Edieresis" unicode="&#xcb;" horiz-adv-x="701" 
d="M539 814q-20 0 -32.5 12.5t-12.5 31.5q0 25 17 41.5t40 16.5q20 0 32.5 -12.5t12.5 -32.5q0 -23 -17 -40t-40 -17zM305 814q-20 0 -32.5 12.5t-12.5 30.5q0 26 18 42.5t41 16.5q20 0 32 -12t12 -32q0 -25 -17.5 -41.5t-40.5 -16.5zM308 690q-20 0 -23 -20l-44 -312h146
q28 0 48.5 6.5t35 22t23.5 40t14 60.5h10l-38 -272h-10q2 14 3 26t1 23q0 46 -20.5 65t-67.5 19h-146l-43 -306q-1 -5 -1.5 -10.5t-0.5 -8.5q0 -13 18 -13h232q28 0 52.5 14t47.5 45t45.5 80.5t46.5 121.5l10 -1l-75 -265l-6 -5h-575l1 10h34q42 0 60 15t23 57l75 534
q1 7 1.5 14t0.5 13q0 27 -14.5 37t-49.5 10h-34l1 10h562l3 -5v-255l-11 -2q-5 74 -14.5 123t-25 77.5t-37.5 40t-53 11.5h-205z" />
    <glyph glyph-name="Igrave" unicode="&#xcc;" horiz-adv-x="357" 
d="M248 786q-23 21 -42 35.5t-36.5 26t-32.5 20.5t-30 19q-17 11 -25 22t-10 23q-2 16 7 27t26 11q28 0 54 -38q16 -25 36.5 -60t58.5 -81zM360 690q-42 0 -59.5 -15t-22.5 -57l-74 -526q-3 -21 -3 -35q0 -26 14.5 -36.5t49.5 -10.5h32l-1 -10h-305l1 10h34q42 0 59.5 15.5
t23.5 56.5l74 529q3 19 3 31q0 27 -14.5 37.5t-49.5 10.5h-34l1 10h305l-1 -10h-33z" />
    <glyph glyph-name="Iacute" unicode="&#xcd;" horiz-adv-x="357" 
d="M240 791q38 46 58.5 81t36.5 59q26 39 54 39q17 0 26 -11t7 -27q-2 -12 -10 -23t-25 -22q-15 -10 -30 -19t-32.5 -20.5t-37 -26t-41.5 -35.5zM361 690q-42 0 -60 -15t-23 -57l-74 -526q-3 -21 -3 -34q0 -27 14.5 -37.5t49.5 -10.5h32l-1 -10h-305l1 10h34q42 0 59.5 15.5
t23.5 56.5l74 529q3 19 3 32q0 26 -14.5 36.5t-49.5 10.5h-34l1 10h305l-1 -10h-32z" />
    <glyph glyph-name="Icircumflex" unicode="&#xce;" horiz-adv-x="357" 
d="M420 790l-147 106l-176 -108l-5 7l185 165h10l141 -165zM361 690q-42 0 -60 -15t-23 -57l-74 -526q-3 -21 -3 -34q0 -27 14.5 -37.5t49.5 -10.5h32l-1 -10h-305l1 10h34q42 0 59.5 15.5t23.5 56.5l74 529q3 19 3 32q0 26 -14.5 36.5t-49.5 10.5h-34l1 10h305l-1 -10h-32z
" />
    <glyph glyph-name="Idieresis" unicode="&#xcf;" horiz-adv-x="357" 
d="M384 916q20 0 32.5 -12.5t12.5 -32.5q0 -23 -17.5 -40t-40.5 -17q-19 0 -31.5 12.5t-12.5 31.5q0 25 17 41.5t40 16.5zM152 916q20 0 32 -12t12 -32q0 -25 -17.5 -41.5t-40.5 -16.5q-20 0 -32.5 12.5t-12.5 30.5q0 26 18 42.5t41 16.5zM361 690q-42 0 -60 -15t-23 -57
l-74 -526q-3 -21 -3 -34q0 -27 14.5 -37.5t49.5 -10.5h32l-1 -10h-305l1 10h34q42 0 59.5 15.5t23.5 56.5l74 529q3 19 3 32q0 26 -14.5 36.5t-49.5 10.5h-34l1 10h305l-1 -10h-32z" />
    <glyph glyph-name="Eth" unicode="&#xd0;" horiz-adv-x="772" 
d="M417 700q74 0 134 -20.5t103 -58.5t66 -91.5t23 -119.5q0 -93 -30 -168.5t-83.5 -129t-128.5 -83t-165 -29.5h-345l1 10h34q40 0 58.5 16t24.5 56l35 253h-104l2 10h104l38 273q1 7 1.5 13t0.5 11q0 27 -14.5 37.5t-49.5 10.5h-34l1 10h328zM328 10q72 0 130.5 34t100 91
t64.5 132t23 158q0 59 -17 108t-48.5 84t-76 54t-98.5 19h-98q-20 0 -23 -20l-45 -325h182l-2 -10h-182l-43 -305v-6q0 -14 17 -14h116z" />
    <glyph glyph-name="Ntilde" unicode="&#xd1;" horiz-adv-x="731" 
d="M603 959q17 -22 23.5 -42.5t4.5 -40.5q-3 -31 -24 -48.5t-54 -17.5q-26 0 -50 10.5t-47.5 23t-48 23t-51.5 10.5q-24 0 -36 -14t-15 -36q-1 -11 0.5 -24t6.5 -23l-10 -6q-11 18 -15 37t-2 36q4 40 28.5 63.5t61.5 23.5q25 0 48.5 -10t46.5 -21.5t45 -21.5t45 -10
q18 0 29 10t13 26q2 10 0.5 21.5t-9.5 24.5zM765 690q-24 0 -41.5 -7t-30 -24t-20.5 -44.5t-14 -68.5l-76 -546h-79l-326 607l-67 -479q-1 -8 -2 -17t-1 -15q0 -48 31.5 -67t100.5 -19h51l-1 -10h-318l1 10h21q50 0 73.5 26t33.5 92l68 488q1 7 1.5 14t0.5 12q0 27 -14 37.5
t-49 10.5h-27l1 10h162l338 -632l67 478q2 13 3 25t1 23q0 54 -29 75t-99 21h-33l1 10h294l-1 -10h-21z" />
    <glyph glyph-name="Ograve" unicode="&#xd2;" horiz-adv-x="780" 
d="M473 786q-23 21 -42 35.5t-36.5 26t-32.5 20.5t-30 19q-17 11 -25 22t-10 23q-3 16 6.5 27t26.5 11q28 0 54 -38q16 -25 36.5 -60t58.5 -81zM467 711q65 0 118 -20t90.5 -57t58 -89t20.5 -115q0 -95 -31 -175.5t-86 -139.5t-130 -92.5t-162 -33.5q-66 0 -119.5 20.5
t-91.5 58t-58.5 90t-20.5 117.5q0 93 31.5 172.5t86.5 138t130.5 92t163.5 33.5zM459 701q-67 0 -123 -39t-96.5 -102.5t-63 -144t-22.5 -162.5q0 -59 14.5 -106t41 -80t64 -50.5t83.5 -17.5q66 0 121 41t94.5 106.5t61.5 148t22 166.5q0 55 -14 99.5t-39.5 75.5t-62 48
t-81.5 17z" />
    <glyph glyph-name="Oacute" unicode="&#xd3;" horiz-adv-x="780" 
d="M465 791q38 46 58.5 81t36.5 60q25 38 53 38q17 0 26.5 -11t7.5 -27q-2 -12 -10 -23t-25 -22q-15 -10 -30.5 -19t-32.5 -20.5t-36.5 -26t-42.5 -35.5zM467 711q65 0 118 -20t90.5 -57t58 -89t20.5 -115q0 -95 -31 -175.5t-86 -139.5t-130 -92.5t-162 -33.5
q-66 0 -119.5 20.5t-91.5 58t-58.5 90t-20.5 117.5q0 93 31.5 172.5t86.5 138t130.5 92t163.5 33.5zM459 701q-67 0 -123 -39t-96.5 -102.5t-63 -144t-22.5 -162.5q0 -59 14.5 -106t41 -80t64 -50.5t83.5 -17.5q66 0 121 41t94.5 106.5t61.5 148t22 166.5q0 55 -14 99.5
t-39.5 75.5t-62 48t-81.5 17z" />
    <glyph glyph-name="Ocircumflex" unicode="&#xd4;" horiz-adv-x="780" 
d="M645 790l-147 106l-177 -108l-4 7l185 165h10l141 -165zM467 711q65 0 118 -20t90.5 -57t58 -89t20.5 -115q0 -95 -31 -175.5t-86 -139.5t-129.5 -92.5t-161.5 -33.5q-66 0 -119.5 20.5t-92 58t-59 90t-20.5 117.5q0 93 31.5 172.5t86.5 138t130.5 92t163.5 33.5z
M459 701q-67 0 -123 -39t-96.5 -102.5t-63 -144t-22.5 -162.5q0 -59 14.5 -106t41 -80t64 -50.5t83.5 -17.5q66 0 121 41t94.5 106.5t61.5 148t22 166.5q0 55 -14 99.5t-39.5 75.5t-62 48t-81.5 17z" />
    <glyph glyph-name="Otilde" unicode="&#xd5;" horiz-adv-x="780" 
d="M637 959q17 -22 23 -42.5t4 -40.5q-3 -31 -23.5 -48.5t-53.5 -17.5q-26 0 -50 10.5t-47.5 23t-48 23t-51.5 10.5q-24 0 -36.5 -14t-14.5 -36q-1 -11 0 -24t6 -23l-9 -6q-11 18 -15 37t-2 36q4 40 28.5 63.5t61.5 23.5q24 0 47.5 -10t46.5 -21.5t45.5 -21.5t45.5 -10
q18 0 29 10t13 26q2 10 0.5 21.5t-9.5 24.5zM467 711q65 0 118 -20t90.5 -57t58 -89t20.5 -115q0 -95 -31 -175.5t-86 -139.5t-129.5 -92.5t-161.5 -33.5q-66 0 -119.5 20.5t-92 58t-59 90t-20.5 117.5q0 93 31.5 172.5t86.5 138t130.5 92t163.5 33.5zM459 701
q-67 0 -123 -39t-96.5 -102.5t-63 -144t-22.5 -162.5q0 -59 14.5 -106t41 -80t64 -50.5t83.5 -17.5q66 0 121 41t94.5 106.5t61.5 148t22 166.5q0 55 -14 99.5t-39.5 75.5t-62 48t-81.5 17z" />
    <glyph glyph-name="Odieresis" unicode="&#xd6;" horiz-adv-x="780" 
d="M609 916q19 0 31.5 -12.5t12.5 -32.5q0 -23 -17 -40t-40 -17q-20 0 -32.5 12.5t-12.5 31.5q0 25 17.5 41.5t40.5 16.5zM377 916q19 0 31.5 -12t12.5 -32q0 -25 -18 -41.5t-41 -16.5q-19 0 -31.5 12.5t-12.5 30.5q0 26 18 42.5t41 16.5zM467 711q65 0 118 -20t90.5 -57
t58 -89t20.5 -115q0 -95 -31 -175.5t-86 -139.5t-129.5 -92.5t-161.5 -33.5q-66 0 -119.5 20.5t-92 58t-59 90t-20.5 117.5q0 93 31.5 172.5t86.5 138t130.5 92t163.5 33.5zM459 701q-67 0 -123 -39t-96.5 -102.5t-63 -144t-22.5 -162.5q0 -59 14.5 -106t41 -80t64 -50.5
t83.5 -17.5q66 0 121 41t94.5 106.5t61.5 148t22 166.5q0 55 -14 99.5t-39.5 75.5t-62 48t-81.5 17z" />
    <glyph glyph-name="multiply" unicode="&#xd7;" horiz-adv-x="558" 
d="M490 116l-8 -7l-192 224l-250 -220l-8 8l251 220l-189 220l8 7l189 -220l254 223l6 -8l-253 -223z" />
    <glyph glyph-name="Oslash" unicode="&#xd8;" horiz-adv-x="783" 
d="M604 683q71 -32 110.5 -97.5t39.5 -155.5q0 -95 -31 -175.5t-86 -139.5t-129.5 -92.5t-161.5 -33.5q-72 0 -131 25l-50 -85h-10l52 89q-72 33 -112 99.5t-40 157.5q0 93 31.5 172.5t86.5 138t130.5 92t163.5 33.5q36 0 68 -6.5t61 -17.5l39 67h10zM580 659
q-50 42 -121 42q-45 0 -85 -18t-74 -49.5t-61 -74.5t-46 -93t-29 -104.5t-10 -109.5q0 -67 18.5 -118.5t52.5 -84.5zM232 44q51 -45 125 -45q66 0 121 41t94.5 106.5t61.5 148t22 166.5q0 63 -18 112t-52 80z" />
    <glyph glyph-name="Ugrave" unicode="&#xd9;" horiz-adv-x="768" 
d="M466 786q-23 21 -42 35.5t-36.5 26t-32.5 20.5t-30 19q-17 11 -25 22t-10 23q-2 16 7 27t26 11q28 0 54 -38q16 -25 36.5 -60t58.5 -81zM801 690q-26 0 -44 -5.5t-30 -19t-19 -37.5t-12 -60l-48 -341q-17 -115 -88 -176.5t-189 -61.5q-122 0 -187 51.5t-65 147.5
q0 13 1.5 27.5t3.5 30.5l52 360q3 21 3 36q0 27 -15 37.5t-50 10.5h-38l2 10h317l-2 -10h-41q-41 0 -58.5 -15.5t-23.5 -56.5l-52 -374q-3 -20 -4 -35t-1 -29q0 -85 46.5 -131t134.5 -46q100 0 164.5 59.5t79.5 164.5l48 341q3 25 3 46q0 44 -22.5 60t-77.5 16h-32l2 10h266
l-2 -10h-22z" />
    <glyph glyph-name="Uacute" unicode="&#xda;" horiz-adv-x="768" 
d="M458 791q38 46 58.5 81t36.5 60q25 38 54 38q17 0 26 -11t7 -27q-2 -12 -10 -23t-25 -22q-15 -10 -30.5 -19t-32.5 -20.5t-36.5 -26t-42.5 -35.5zM801 690q-26 0 -44 -5.5t-30 -19t-19 -37.5t-12 -60l-48 -341q-17 -115 -88 -176.5t-189 -61.5q-122 0 -187 51.5
t-65 147.5q0 13 1.5 27.5t3.5 30.5l52 360q3 21 3 36q0 27 -15 37.5t-50 10.5h-38l2 10h317l-2 -10h-41q-41 0 -58.5 -15.5t-23.5 -56.5l-52 -374q-3 -20 -4 -35t-1 -29q0 -85 46.5 -131t134.5 -46q100 0 165 59.5t79 164.5l48 341q3 25 3 46q0 44 -22.5 60t-77.5 16h-32
l2 10h266l-2 -10h-22z" />
    <glyph glyph-name="Ucircumflex" unicode="&#xdb;" horiz-adv-x="768" 
d="M638 790l-147 106l-176 -108l-5 7l185 165h10l141 -165zM801 690q-26 0 -44 -5.5t-30 -19t-19 -37.5t-12 -60l-48 -341q-17 -115 -88 -176.5t-189 -61.5q-122 0 -187 51.5t-65 147.5q0 13 1.5 27.5t3.5 30.5l52 360q3 21 3 36q0 27 -15 37.5t-50 10.5h-38l2 10h317
l-2 -10h-41q-41 0 -58.5 -15.5t-23.5 -56.5l-52 -374q-3 -20 -4 -35t-1 -29q0 -85 46.5 -131t134.5 -46q100 0 165 59.5t79 164.5l48 341q3 25 3 46q0 44 -22.5 60t-77.5 16h-32l2 10h266l-2 -10h-22z" />
    <glyph glyph-name="Udieresis" unicode="&#xdc;" horiz-adv-x="768" 
d="M602 916q20 0 32.5 -12t12.5 -32q0 -24 -17.5 -41t-40.5 -17q-20 0 -32.5 12.5t-12.5 31.5q0 25 17.5 41.5t40.5 16.5zM370 916q20 0 32 -12t12 -32q0 -25 -17.5 -41.5t-40.5 -16.5q-20 0 -32.5 12.5t-12.5 31.5q0 26 18 42t41 16zM801 690q-26 0 -44 -5.5t-30 -19
t-19 -37.5t-12 -60l-48 -341q-17 -115 -88 -176.5t-189 -61.5q-122 0 -187 51.5t-65 147.5q0 13 1.5 27.5t3.5 30.5l52 360q3 21 3 36q0 27 -15 37.5t-50 10.5h-38l2 10h317l-2 -10h-41q-41 0 -58.5 -15.5t-23.5 -56.5l-52 -374q-3 -20 -4 -35t-1 -29q0 -85 46.5 -131
t134.5 -46q100 0 165 59.5t79 164.5l48 341q3 25 3 46q0 44 -22.5 60t-77.5 16h-32l2 10h266l-2 -10h-22z" />
    <glyph glyph-name="Yacute" unicode="&#xdd;" horiz-adv-x="753" 
d="M443 791q38 46 58.5 81t36.5 59q26 39 54 39q17 0 26 -11t7 -27q-2 -12 -10 -23t-25 -22q-15 -10 -30 -19t-32.5 -20.5t-37 -26t-41.5 -35.5zM802 690h-16q-19 0 -36.5 -6.5t-36 -21t-39 -38.5t-44.5 -59l-199 -287l-26 -192q-1 -7 -1.5 -14t-0.5 -12q0 -29 16 -39.5
t55 -10.5h43l-1 -10h-342l1 10h40q49 0 69.5 15.5t26.5 57.5l26 189l-144 361q-14 34 -34 45.5t-62 11.5h-22l1 10h306l-1 -10h-40q-26 0 -38 -11.5t-12 -28.5q0 -8 2.5 -16.5t6.5 -16.5l129 -323l185 266q35 51 35 81q0 49 -83 49h-27l1 10h263z" />
    <glyph glyph-name="Thorn" unicode="&#xde;" horiz-adv-x="669" 
d="M447 573q95 0 146.5 -41.5t51.5 -116.5q0 -49 -19 -90.5t-52.5 -72t-79.5 -47.5t-100 -17h-174l-13 -89q-1 -8 -1.5 -14t-0.5 -12q0 -38 26 -50.5t93 -12.5l-1 -10h-331l1 10q32 0 53.5 4t35 14t20.5 27t11 44l72 514q1 7 1.5 13t0.5 11q0 32 -21.5 42.5t-77.5 10.5l1 10
h324l-1 -10q-37 0 -61.5 -3.5t-39.5 -12.5t-22 -24t-10 -39l-6 -38h174zM374 198q38 0 70.5 16t56 46t37 72t13.5 94q0 65 -32 101t-93 36h-154l-51 -365h153z" />
    <glyph glyph-name="germandbls" unicode="&#xdf;" horiz-adv-x="711" 
d="M161 537q15 111 85 167.5t178 56.5q59 0 93 -26.5t34 -73.5q0 -32 -11 -56t-27.5 -43t-36 -34.5t-36 -31t-27.5 -32.5t-11 -39q0 -29 18 -47.5t45 -33t58.5 -27.5t58.5 -30.5t45 -42t18 -62.5q0 -30 -11 -64t-35 -62.5t-63 -47.5t-95 -19q-42 0 -82 14t-71 34l17 127h10
q2 -72 33.5 -118.5t94.5 -46.5q40 0 67 13t44 32t24.5 41t7.5 40q0 30 -19 49.5t-48 34.5t-62 28t-62 29.5t-48 39t-19 57.5q0 38 16 64.5t39.5 47.5t51 39t51 38.5t39.5 46.5t16 63q0 41 -31.5 65t-86.5 24q-64 0 -108.5 -43.5t-56.5 -128.5l-82 -579h-197l2 10
q37 0 59 3.5t33.5 11t15.5 19.5t7 29z" />
    <glyph glyph-name="agrave" unicode="&#xe0;" horiz-adv-x="633" 
d="M365 586q-23 21 -42.5 35.5t-36.5 26t-32.5 20.5t-30.5 19q-17 11 -25 22t-10 23q-2 16 7.5 27t26.5 11q28 0 53 -39q16 -24 36.5 -59t58.5 -81zM504 90q-3 -23 -3 -35q0 -25 12.5 -35t41.5 -10h29l-1 -10h-177l-5 5l14 98h-2q-11 -22 -29 -42.5t-42 -36.5t-51.5 -25.5
t-57.5 -9.5q-44 0 -79.5 15t-61 41.5t-39 63.5t-13.5 81q0 70 23.5 129t65.5 101.5t100 66t127 23.5q21 0 40.5 -1t42.5 -4t51 -8t64 -12l5 -6zM469 489q-33 6 -58 8.5t-55 2.5q-47 0 -87.5 -23.5t-70 -66t-46.5 -101.5t-17 -129q0 -81 34 -125t91 -44q27 0 54 12t49 31.5
t37 44t19 50.5z" />
    <glyph glyph-name="aacute" unicode="&#xe1;" horiz-adv-x="633" 
d="M356 591q38 46 58.5 81t36.5 59q26 39 54 39q17 0 26.5 -11t6.5 -27q-2 -12 -10 -23t-25 -22q-15 -10 -30 -19t-32.5 -20.5t-37 -26t-41.5 -35.5zM504 90q-3 -23 -3 -35q0 -25 12.5 -35t41.5 -10h29l-1 -10h-177l-5 5l14 98h-2q-11 -22 -29 -42.5t-42 -36.5t-51.5 -25.5
t-57.5 -9.5q-44 0 -79.5 15t-61 41.5t-39 63.5t-13.5 81q0 70 23.5 129t65.5 101.5t100 66t127 23.5q21 0 40.5 -1t42.5 -4t51 -8t64 -12l5 -6zM469 489q-33 6 -58 8.5t-55 2.5q-47 0 -87.5 -23.5t-70 -66t-46.5 -101.5t-17 -129q0 -81 34 -125t91 -44q27 0 54 12t49 31.5
t37 44t19 50.5z" />
    <glyph glyph-name="acircumflex" unicode="&#xe2;" horiz-adv-x="633" 
d="M536 590l-147 106l-176 -108l-5 7l185 165h10l142 -165zM504 90q-3 -23 -3 -35q0 -25 12.5 -35t41.5 -10h29l-1 -10h-177l-5 5l14 98h-2q-11 -22 -29 -42.5t-42 -36.5t-51.5 -25.5t-57.5 -9.5q-44 0 -79.5 15t-61 41.5t-39 63.5t-13.5 81q0 70 23.5 129t65.5 101.5
t100 66t127 23.5q21 0 40.5 -1t42.5 -4t51 -8t64 -12l5 -6zM469 489q-33 6 -58 8.5t-55 2.5q-47 0 -87.5 -23.5t-70 -66t-46.5 -101.5t-17 -129q0 -81 34 -125t91 -44q27 0 54 12t49 31.5t37 44t19 50.5z" />
    <glyph glyph-name="atilde" unicode="&#xe3;" horiz-adv-x="633" 
d="M529 759q17 -22 23 -42.5t4 -40.5q-3 -31 -23.5 -48.5t-54.5 -17.5q-26 0 -50 10.5t-47.5 23t-48 23t-51.5 10.5q-24 0 -36 -14t-14 -36q-2 -11 -0.5 -24t6.5 -23l-10 -6q-10 18 -14.5 37t-2.5 36q4 40 28.5 63.5t62.5 23.5q24 0 47.5 -10t46.5 -21.5t45.5 -21.5
t45.5 -10q18 0 29 10t13 26q3 22 -9 46zM504 90q-3 -23 -3 -35q0 -25 12.5 -35t41.5 -10h29l-1 -10h-177l-5 5l14 98h-2q-11 -22 -29 -42.5t-42 -36.5t-51.5 -25.5t-57.5 -9.5q-44 0 -79.5 15t-60.5 41.5t-39 63.5t-14 81q0 70 23.5 129t65.5 101.5t100 66t127 23.5
q21 0 40.5 -1t42.5 -4t51 -8t64 -12l5 -6zM469 489q-33 6 -58 8.5t-55 2.5q-47 0 -87.5 -23.5t-70 -66t-46.5 -101.5t-17 -129q0 -81 34 -125t91 -44q27 0 54 12t49 31.5t37 44t19 50.5z" />
    <glyph glyph-name="adieresis" unicode="&#xe4;" horiz-adv-x="633" 
d="M500 716q20 0 32.5 -12.5t12.5 -32.5q0 -23 -17 -40t-40 -17q-20 0 -32.5 12.5t-12.5 31.5q0 25 17 41.5t40 16.5zM268 716q20 0 32 -12t12 -32q0 -25 -17.5 -41.5t-40.5 -16.5q-20 0 -32.5 12.5t-12.5 30.5q0 26 18 42.5t41 16.5zM504 90q-3 -23 -3 -35q0 -25 12.5 -35
t41.5 -10h29l-1 -10h-177l-5 5l14 98h-2q-11 -22 -29 -42.5t-42 -36.5t-51.5 -25.5t-57.5 -9.5q-44 0 -79.5 15t-61 41.5t-39 63.5t-13.5 81q0 70 23.5 129t65.5 101.5t100 66t127 23.5q21 0 40.5 -1t42.5 -4t51 -8t64 -12l5 -6zM469 489q-33 6 -58 8.5t-55 2.5
q-47 0 -87.5 -23.5t-70 -66t-46.5 -101.5t-17 -129q0 -81 34 -125t91 -44q27 0 54 12t49 31.5t37 44t19 50.5z" />
    <glyph glyph-name="aring" unicode="&#xe5;" horiz-adv-x="633" 
d="M393 765q39 0 63 -24t24 -61q0 -24 -9.5 -45t-25 -36.5t-36.5 -24.5t-44 -9q-39 0 -63 24t-24 61q0 24 9 45t25 36.5t37 24.5t44 9zM391 755q-21 0 -39.5 -8.5t-32.5 -22.5t-22 -33t-8 -41q0 -32 21 -53.5t56 -21.5q21 0 39.5 8t32.5 22t22.5 33t8.5 40q0 34 -21.5 55.5
t-56.5 21.5zM504 90q-3 -23 -3 -35q0 -25 12.5 -35t41.5 -10h29l-1 -10h-177l-5 5l14 98h-2q-11 -22 -29 -42.5t-42 -36.5t-51.5 -25.5t-57.5 -9.5q-44 0 -79.5 15t-61 41.5t-39 63.5t-13.5 81q0 70 23.5 129t65.5 101.5t100 66t127 23.5q21 0 40.5 -1t42.5 -4t51 -8t64 -12
l5 -6zM469 489q-33 6 -58 8.5t-55 2.5q-47 0 -87.5 -23.5t-70 -66t-46.5 -101.5t-17 -129q0 -81 34 -125t91 -44q27 0 54 12t49 31.5t37 44t19 50.5z" />
    <glyph glyph-name="ae" unicode="&#xe6;" horiz-adv-x="929" 
d="M556 459q35 25 77.5 38.5t90.5 13.5q88 0 135.5 -47t47.5 -127q0 -20 -3 -42l-6 -5h-363q-9 -45 -9 -99q0 -92 40.5 -140.5t111.5 -48.5q50 0 98.5 20.5t102.5 64.5l5 -7q-60 -49 -114.5 -70t-112.5 -21q-97 0 -157.5 52t-66.5 143q-26 -100 -74 -147.5t-126 -47.5
q-44 0 -79.5 14.5t-61 40.5t-39 63.5t-13.5 82.5q0 71 23.5 130t65.5 101t100 65.5t127 23.5q21 0 40.5 -1t42.5 -4t51 -8t64 -12l5 -6zM791 300q18 0 25.5 16.5t7.5 58.5q0 57 -27.5 91.5t-78.5 34.5q-65 0 -113 -55t-68 -146h254zM469 489q-33 6 -58 8.5t-55 2.5
q-47 0 -87.5 -23.5t-70 -66t-46.5 -101.5t-17 -129q0 -81 34 -125t91 -44q27 0 52 10t47 34t40 63.5t31 98.5z" />
    <glyph glyph-name="ccedilla" unicode="&#xe7;" horiz-adv-x="559" 
d="M266 -11q-54 0 -96 15.5t-70.5 43.5t-43.5 67.5t-15 87.5q0 67 24 123.5t66.5 97.5t100.5 64t126 23q83 0 129 -39.5t46 -99.5q0 -41 -17.5 -63.5t-49.5 -22.5q-24 0 -38.5 14.5t-14.5 37.5q0 26 17 43t44 17q17 0 31.5 -12t16.5 -32q1 6 1 9.5v8.5q0 27 -11 50t-31 40
t-48.5 26.5t-62.5 9.5q-50 0 -93 -22t-74.5 -61.5t-49.5 -93.5t-18 -117q0 -93 41 -147.5t111 -54.5q52 0 103.5 20.5t108.5 64.5l6 -9q-58 -44 -111.5 -65t-110.5 -24l-63 -91q17 14 40 22t45 8q38 0 62.5 -20.5t24.5 -49.5q0 -45 -39 -73t-99 -28q-54 0 -94 28l6 8
q17 -11 36.5 -17t39.5 -6q39 0 64.5 25t25.5 63q0 24 -13.5 37.5t-36.5 13.5q-18 0 -38.5 -8t-44.5 -28l-5 4l79 112h-7z" />
    <glyph glyph-name="egrave" unicode="&#xe8;" horiz-adv-x="550" 
d="M336 586q-23 21 -42 35.5t-36.5 26t-32.5 20.5t-30 19q-17 11 -25 22t-10 23q-2 16 7 27t26 11q28 0 54 -39q16 -24 36.5 -59t58.5 -81zM493 80q-60 -49 -114.5 -70t-112.5 -21q-51 0 -92.5 15t-71 42.5t-45.5 67t-16 89.5q0 65 21.5 121.5t60.5 98t92.5 65t117.5 23.5
q88 0 135.5 -47t47.5 -127q0 -20 -3 -42l-5 -5h-364q-9 -45 -9 -99q0 -92 40.5 -140.5t111.5 -48.5q50 0 98.5 20.5t102.5 64.5zM401 300q17 0 24.5 16.5t7.5 58.5q0 57 -27.5 91.5t-78.5 34.5q-32 0 -60.5 -14.5t-52 -40.5t-41 -63.5t-27.5 -82.5h255z" />
    <glyph glyph-name="eacute" unicode="&#xe9;" horiz-adv-x="550" 
d="M328 591q38 46 58.5 81t36.5 59q25 39 53 39q17 0 26.5 -11t7.5 -27q-2 -12 -10 -23t-25 -22q-15 -10 -30.5 -19t-32.5 -20.5t-36.5 -26t-42.5 -35.5zM493 80q-60 -49 -114.5 -70t-112.5 -21q-51 0 -92.5 15t-71 42.5t-45.5 67t-16 89.5q0 65 21.5 121.5t60.5 98t92.5 65
t117.5 23.5q88 0 135.5 -47t47.5 -127q0 -20 -3 -42l-5 -5h-364q-9 -45 -9 -99q0 -92 40.5 -140.5t111.5 -48.5q50 0 98.5 20.5t102.5 64.5zM401 300q17 0 24.5 16.5t7.5 58.5q0 57 -27.5 91.5t-78.5 34.5q-32 0 -60.5 -14.5t-52 -40.5t-41 -63.5t-27.5 -82.5h255z" />
    <glyph glyph-name="ecircumflex" unicode="&#xea;" horiz-adv-x="550" 
d="M180 595l185 165h10l141 -165l-8 -5l-147 106l-176 -108zM493 80q-60 -49 -114.5 -70t-112.5 -21q-51 0 -92.5 15t-71 42.5t-45.5 67t-16 89.5q0 65 21.5 121.5t60.5 98t92.5 65t117.5 23.5q88 0 135.5 -47t47.5 -127q0 -20 -3 -42l-5 -5h-364q-9 -45 -9 -99
q0 -92 40.5 -140.5t111.5 -48.5q50 0 98.5 20.5t102.5 64.5zM401 300q17 0 24.5 16.5t7.5 58.5q0 57 -27.5 91.5t-78.5 34.5q-32 0 -60.5 -14.5t-52 -40.5t-41 -63.5t-27.5 -82.5h255z" />
    <glyph glyph-name="edieresis" unicode="&#xeb;" horiz-adv-x="550" 
d="M459 614q-20 0 -32.5 12.5t-12.5 31.5q0 25 17.5 41.5t40.5 16.5q20 0 32 -12.5t12 -32.5q0 -23 -17 -40t-40 -17zM225 614q-19 0 -31.5 12.5t-12.5 30.5q0 26 18 42.5t41 16.5q19 0 31.5 -12t12.5 -32q0 -25 -18 -41.5t-41 -16.5zM493 80q-60 -49 -114.5 -70t-112.5 -21
q-51 0 -92.5 15t-71 42.5t-45.5 67t-16 89.5q0 65 21.5 121.5t60.5 98t92.5 65t117.5 23.5q88 0 135.5 -47t47.5 -127q0 -20 -3 -42l-5 -5h-364q-9 -45 -9 -99q0 -92 40.5 -140.5t111.5 -48.5q50 0 98.5 20.5t102.5 64.5zM401 300q17 0 24.5 16.5t7.5 58.5q0 57 -27.5 91.5
t-78.5 34.5q-32 0 -60.5 -14.5t-52 -40.5t-41 -63.5t-27.5 -82.5h255z" />
    <glyph glyph-name="igrave" unicode="&#xec;" horiz-adv-x="324" 
d="M198 586q-23 21 -42 35.5t-36.5 26t-32.5 20.5t-30 19q-17 11 -25 22t-10 23q-3 16 6.5 27t26.5 11q28 0 54 -38q16 -25 36.5 -60t58.5 -81zM184 89q-3 -23 -3 -30q0 -28 14.5 -38.5t49.5 -10.5h30l-2 -10h-294l2 10h30q41 0 58.5 15.5t23.5 56.5l48 344q1 5 1.5 11
t0.5 11q0 23 -12.5 32.5t-43.5 9.5h-36l2 10l183 6l6 -6z" />
    <glyph glyph-name="iacute" unicode="&#xed;" horiz-adv-x="324" 
d="M190 591q38 46 58.5 81t36.5 59q25 39 53 39q17 0 26.5 -11t7.5 -27q-2 -12 -10 -23t-25 -22q-15 -10 -30.5 -19t-32.5 -20.5t-36.5 -26t-42.5 -35.5zM184 89q-3 -23 -3 -30q0 -28 14.5 -38.5t49.5 -10.5h30l-2 -10h-294l2 10h30q41 0 58.5 15.5t23.5 56.5l48 344
q1 5 1.5 11t0.5 11q0 23 -12.5 32.5t-43.5 9.5h-36l2 10l183 6l6 -6z" />
    <glyph glyph-name="icircumflex" unicode="&#xee;" horiz-adv-x="324" 
d="M370 590l-147 106l-177 -108l-4 7l185 165h10l141 -165zM184 89q-3 -23 -3 -30q0 -28 14.5 -38.5t49.5 -10.5h30l-2 -10h-294l2 10h30q41 0 58.5 15.5t23.5 56.5l48 344q1 5 1.5 11t0.5 11q0 23 -12.5 32.5t-43.5 9.5h-36l2 10l184 6l5 -6z" />
    <glyph glyph-name="idieresis" unicode="&#xef;" horiz-adv-x="324" 
d="M334 716q19 0 31.5 -12.5t12.5 -32.5q0 -23 -17 -40t-40 -17q-20 0 -32.5 12.5t-12.5 31.5q0 25 17.5 41.5t40.5 16.5zM102 716q19 0 31.5 -12t12.5 -32q0 -25 -18 -41.5t-41 -16.5q-19 0 -31.5 12.5t-12.5 30.5q0 26 18 42.5t41 16.5zM184 89q-3 -23 -3 -30
q0 -28 14.5 -38.5t49.5 -10.5h30l-2 -10h-294l2 10h30q41 0 58.5 15.5t23.5 56.5l48 344q1 5 1.5 11t0.5 11q0 23 -12.5 32.5t-43.5 9.5h-36l2 10l184 6l5 -6z" />
    <glyph glyph-name="eth" unicode="&#xf0;" horiz-adv-x="643" 
d="M408 711q94 -16 147.5 -87.5t53.5 -183.5q0 -101 -25.5 -184t-72 -142t-111 -91.5t-143.5 -32.5q-51 0 -91 14.5t-68 40t-42.5 61.5t-14.5 78q0 60 21.5 108.5t60 83.5t91.5 54t117 19q55 0 103.5 -19t80.5 -53q3 43 3 90q0 85 -31 147.5t-90 82.5l-117 -148l-9 7
l113 144q-15 4 -35 4q-52 0 -99.5 -12t-85.5 -32l-4 11q37 19 88 31.5t111 12.5q9 0 18 -0.5t17 -1.5l92 117l10 -8zM257 0q51 0 94.5 25.5t76.5 73t55 115t30 150.5q-29 34 -72.5 53t-91.5 19q-50 0 -91 -24t-69.5 -63t-44 -90t-15.5 -105q0 -67 32.5 -110.5t95.5 -43.5z
" />
    <glyph glyph-name="ntilde" unicode="&#xf1;" horiz-adv-x="659" 
d="M546 763q17 -22 23 -42.5t4 -40.5q-3 -30 -23.5 -48t-53.5 -18q-26 0 -50 10.5t-47.5 23t-48 23t-51.5 10.5q-24 0 -36.5 -14t-14.5 -36q-1 -11 0 -24t6 -23l-9 -6q-22 37 -17 74q4 39 28.5 62.5t61.5 23.5q24 0 47.5 -10t46.5 -21.5t45.5 -21.5t45.5 -10q18 0 29 10
t13 26q2 10 0.5 21.5t-9.5 24.5zM478 350q3 22 3 38q0 47 -23.5 74t-65.5 27q-32 0 -60.5 -12t-51.5 -31.5t-38 -44t-19 -49.5l-37 -269q-1 -8 -1.5 -14.5t-0.5 -11.5q0 -26 13.5 -36.5t47.5 -10.5h23l-2 -10h-287l2 10h32q42 0 59.5 15t22.5 57l48 345q3 12 3 23
q0 23 -13 31.5t-44 8.5h-41l1 10l193 5l4 -5l-18 -102h2q10 21 28.5 41.5t43 36.5t54 25.5t63.5 9.5q69 0 109 -35.5t40 -98.5q0 -16 -3 -38l-34 -250q-3 -21 -3 -31q0 -27 14 -37.5t49 -10.5h25l-2 -10h-278l2 10h22q41 0 57.5 15t21.5 57z" />
    <glyph glyph-name="ograve" unicode="&#xf2;" 
d="M319 586q-23 21 -42 35.5t-36.5 26t-32.5 20.5t-30 19q-17 11 -25 22t-10 23q-2 16 7 27t26 11q28 0 54 -38q16 -25 36.5 -60t58.5 -81zM344 511q46 0 86 -13.5t69.5 -40t46.5 -65t17 -89.5q0 -66 -23 -123t-63 -99.5t-95 -67t-119 -24.5q-52 0 -93 16t-69.5 44.5
t-43.5 69t-15 88.5q0 63 23 118t63.5 96.5t95.5 65.5t120 24zM338 501q-44 0 -81.5 -29.5t-64.5 -75.5t-42 -103.5t-15 -112.5q0 -85 34 -133t95 -48q45 0 82.5 29t65 75.5t42.5 105.5t15 119q0 83 -36 128t-95 45z" />
    <glyph glyph-name="oacute" unicode="&#xf3;" 
d="M311 591q38 46 58.5 81t36.5 59q26 39 54 39q17 0 26 -11t7 -27q-2 -12 -10 -23t-25 -22q-15 -10 -30 -19t-32.5 -20.5t-37 -26t-41.5 -35.5zM344 511q46 0 86 -13.5t69.5 -40t46.5 -65t17 -89.5q0 -66 -23 -123t-63 -99.5t-95 -67t-119 -24.5q-52 0 -93 16t-69.5 44.5
t-43.5 69t-15 88.5q0 63 23 118t63.5 96.5t95.5 65.5t120 24zM338 501q-44 0 -81.5 -29.5t-64.5 -75.5t-42 -103.5t-15 -112.5q0 -85 34 -133t95 -48q45 0 82.5 29t65 75.5t42.5 105.5t15 119q0 83 -36 128t-95 45z" />
    <glyph glyph-name="ocircumflex" unicode="&#xf4;" 
d="M491 590l-147 106l-176 -108l-5 7l185 165h10l141 -165zM344 511q46 0 86 -13.5t69.5 -40t46.5 -65t17 -89.5q0 -66 -23 -123t-63 -99.5t-95 -67t-119 -24.5q-52 0 -93 16t-69.5 44.5t-43.5 69t-15 88.5q0 63 23 118t63.5 96.5t95.5 65.5t120 24zM338 501
q-44 0 -81.5 -29.5t-64.5 -75.5t-42 -103.5t-15 -112.5q0 -85 34 -133t95 -48q45 0 82.5 29t65 75.5t42.5 105.5t15 119q0 83 -36 128t-95 45z" />
    <glyph glyph-name="otilde" unicode="&#xf5;" 
d="M483 759q17 -22 23.5 -42.5t4.5 -40.5q-3 -31 -24 -48.5t-54 -17.5q-26 0 -50 10.5t-47.5 23t-48 23t-51.5 10.5q-24 0 -36 -14t-15 -36q-1 -11 0.5 -24t6.5 -23l-10 -6q-11 18 -15 37t-2 36q4 40 28.5 63.5t61.5 23.5q25 0 48.5 -10t46.5 -21.5t45 -21.5t45 -10
q18 0 29.5 10t13.5 26q1 10 -0.5 21.5t-9.5 24.5zM344 511q46 0 86 -13.5t69.5 -40t46.5 -65t17 -89.5q0 -66 -23 -123t-63 -99.5t-95 -67t-119 -24.5q-52 0 -93 16t-69.5 44.5t-43.5 69t-15 88.5q0 63 23 118t63.5 96.5t95.5 65.5t120 24zM338 501q-44 0 -81.5 -29.5
t-64.5 -75.5t-42 -103.5t-15 -112.5q0 -85 34 -133t95 -48q45 0 82.5 29t65 75.5t42.5 105.5t15 119q0 83 -36 128t-95 45z" />
    <glyph glyph-name="odieresis" unicode="&#xf6;" 
d="M455 716q20 0 32.5 -12.5t12.5 -32.5q0 -23 -17.5 -40t-40.5 -17q-20 0 -32 12.5t-12 31.5q0 25 17 41.5t40 16.5zM223 716q20 0 32 -12t12 -32q0 -25 -17.5 -41.5t-40.5 -16.5q-20 0 -32.5 12.5t-12.5 30.5q0 26 18 42.5t41 16.5zM344 511q46 0 86 -13.5t69.5 -40
t46.5 -65t17 -89.5q0 -66 -23 -123t-63 -99.5t-95 -67t-119 -24.5q-52 0 -93 16t-69.5 44.5t-43.5 69t-15 88.5q0 63 23 118t63.5 96.5t95.5 65.5t120 24zM338 501q-44 0 -81.5 -29.5t-64.5 -75.5t-42 -103.5t-15 -112.5q0 -85 34 -133t95 -48q45 0 82.5 29t65 75.5
t42.5 105.5t15 119q0 83 -36 128t-95 45z" />
    <glyph glyph-name="divide" unicode="&#xf7;" horiz-adv-x="551" 
d="M318 605q21 0 33.5 -12.5t12.5 -32.5q0 -28 -17.5 -45t-43.5 -17q-21 0 -34 13t-13 33q0 27 18 44t44 17zM40 344l2 10h497l-2 -10h-497zM267 206q21 0 33.5 -12.5t12.5 -32.5q0 -28 -18 -45t-43 -17q-21 0 -34 13t-13 33q0 27 18 44t44 17z" />
    <glyph glyph-name="oslash" unicode="&#xf8;" 
d="M445 492q54 -23 86 -70t32 -119q0 -66 -23 -123t-63 -99.5t-95 -67t-119 -24.5q-14 0 -27 1.5t-25 3.5l-57 -122h-12l58 124q-75 17 -116.5 73.5t-41.5 137.5q0 63 23 118t63.5 96.5t95.5 65.5t120 24q49 0 91 -15l59 125h12zM422 468q-33 33 -84 33q-44 0 -81.5 -29.5
t-64.5 -75.5t-42 -103.5t-15 -112.5q0 -63 19 -105.5t54 -61.5zM218 8q21 -9 46 -9q45 0 82.5 29t65 75.5t42.5 105.5t15 119q0 44 -10.5 76.5t-28.5 54.5z" />
    <glyph glyph-name="ugrave" unicode="&#xf9;" horiz-adv-x="655" 
d="M357 584q-23 21 -42.5 35.5t-37 26t-32.5 20.5t-30 19q-17 11 -25 22t-10 23q-2 16 7 27t26 11q14 0 27.5 -9t26.5 -29q16 -25 36.5 -60t58.5 -81zM429 102q-10 -21 -28.5 -41.5t-43 -36.5t-53.5 -25.5t-60 -9.5q-72 0 -112 37.5t-40 105.5q0 14 3 35l34 248q3 18 3 27
q0 27 -14.5 37.5t-49.5 10.5h-24l2 10h181l4 -5l-48 -342q-2 -11 -2.5 -18.5t-0.5 -14.5q0 -53 23.5 -81t67.5 -28q29 0 57.5 12t51 31.5t38 44t18.5 49.5l37 267q2 11 2.5 17t0.5 11q0 26 -14 36.5t-48 10.5h-22l1 10h178l4 -5l-59 -423q-1 -6 -1.5 -11.5t-0.5 -10.5
q0 -23 13 -31.5t43 -8.5h41l-1 -10l-188 -5l-4 5l13 102h-2z" />
    <glyph glyph-name="uacute" unicode="&#xfa;" horiz-adv-x="655" 
d="M348 589q38 46 58.5 81t36.5 60q14 20 27 29t27 9q17 0 26 -11t7 -27q-2 -12 -10 -23t-25 -22q-15 -10 -30 -19t-32.5 -20.5t-37 -26t-41.5 -35.5zM429 102q-10 -21 -28.5 -41.5t-43 -36.5t-53.5 -25.5t-60 -9.5q-72 0 -112 37.5t-40 105.5q0 14 3 35l34 248q3 18 3 27
q0 27 -14.5 37.5t-49.5 10.5h-24l2 10h181l4 -5l-48 -342q-2 -11 -2.5 -18.5t-0.5 -14.5q0 -53 23.5 -81t67.5 -28q29 0 57.5 12t51 31.5t38 44t18.5 49.5l37 267q2 11 2.5 17t0.5 11q0 26 -14 36.5t-48 10.5h-22l1 10h178l4 -5l-59 -423q-1 -6 -1.5 -11.5t-0.5 -10.5
q0 -23 13 -31.5t43 -8.5h41l-1 -10l-188 -5l-4 5l14 102h-3z" />
    <glyph glyph-name="ucircumflex" unicode="&#xfb;" horiz-adv-x="655" 
d="M528 588l-147 106l-176 -108l-5 7l185 165h10l142 -165zM429 102q-10 -21 -28.5 -41.5t-43 -36.5t-53.5 -25.5t-60 -9.5q-72 0 -112 37.5t-40 105.5q0 14 3 35l34 248q3 18 3 27q0 27 -14.5 37.5t-49.5 10.5h-24l2 10h181l4 -5l-48 -342q-2 -11 -2.5 -18.5t-0.5 -14.5
q0 -53 23.5 -81t67.5 -28q29 0 57.5 12t51 31.5t38 44t18.5 49.5l37 267q2 11 2.5 17t0.5 11q0 26 -14 36.5t-48 10.5h-22l1 10h178l4 -5l-59 -423q-1 -6 -1.5 -11.5t-0.5 -10.5q0 -23 13 -31.5t43 -8.5h41l-1 -10l-188 -5l-4 5l14 102h-3z" />
    <glyph glyph-name="udieresis" unicode="&#xfc;" horiz-adv-x="655" 
d="M492 714q20 0 32.5 -12t12.5 -32q0 -24 -17 -41t-40 -17q-20 0 -32.5 12.5t-12.5 31.5q0 25 17 41.5t40 16.5zM260 714q20 0 32 -12t12 -32q0 -25 -17.5 -41.5t-40.5 -16.5q-20 0 -32.5 12.5t-12.5 31.5q0 26 18 42t41 16zM429 102q-10 -21 -28.5 -41.5t-43 -36.5
t-53.5 -25.5t-60 -9.5q-72 0 -112 37.5t-40 105.5q0 14 3 35l34 248q3 18 3 27q0 27 -14.5 37.5t-49.5 10.5h-24l2 10h181l4 -5l-48 -342q-2 -11 -2.5 -18.5t-0.5 -14.5q0 -53 23.5 -81t67.5 -28q29 0 57.5 12t51 31.5t38 44t18.5 49.5l37 267q2 11 2.5 17t0.5 11
q0 26 -14 36.5t-48 10.5h-22l1 10h178l4 -5l-59 -423q-1 -6 -1.5 -11.5t-0.5 -10.5q0 -23 13 -31.5t43 -8.5h41l-1 -10l-188 -5l-4 5l14 102h-3z" />
    <glyph glyph-name="yacute" unicode="&#xfd;" horiz-adv-x="626" 
d="M374 592q38 46 58.5 81t36.5 59q13 20 26 29t27 9q17 0 26.5 -10.5t7.5 -26.5q-2 -12 -10 -23t-25 -22q-15 -10 -30.5 -19t-32.5 -20.5t-36.5 -26t-42.5 -35.5zM651 490h-26q-29 0 -53.5 -18.5t-53.5 -69.5l-270 -481q-23 -41 -44 -74.5t-43.5 -57t-48 -36.5t-56.5 -13
q-44 0 -74 26.5t-30 70.5q0 37 20.5 59.5t49.5 22.5q26 0 39.5 -15t13.5 -36q0 -26 -17 -43.5t-46 -17.5q-20 0 -33.5 11.5t-15.5 34.5q-1 -5 -1 -8v-8q0 -38 27 -62.5t68 -24.5q28 0 52 12.5t45.5 36t41.5 55.5t42 71l41 72l-121 419q-6 22 -12.5 36t-15 22.5t-20.5 12
t-30 3.5h-18l1 10h271l-1 -10h-32q-53 0 -53 -43q0 -7 2 -15.5t5 -19.5l81 -312l171 304q15 24 15 44q0 42 -65 42h-37l1 10h231z" />
    <glyph glyph-name="thorn" unicode="&#xfe;" horiz-adv-x="641" 
d="M227 398q10 22 28 42t41.5 36t52 25.5t59.5 9.5q87 0 139.5 -51t52.5 -149q0 -70 -23.5 -129t-65.5 -101.5t-100 -66.5t-128 -24q-30 0 -57.5 5t-54.5 14l-23 -169q-3 -21 -3 -32q0 -27 15 -37.5t50 -10.5h30l-1 -10h-295l1 10h29q42 0 59.5 15.5t23.5 56.5l116 829
q3 19 3 30q0 28 -15 38.5t-50 10.5h-27l1 10h185l4 -5l-49 -347h2zM173 19q31 -11 56 -15t56 -4q48 0 88 26t69.5 70.5t46 103.5t16.5 125q0 81 -34 122.5t-90 41.5q-29 0 -56.5 -12t-49.5 -31t-37 -44t-18 -50z" />
    <glyph glyph-name="ydieresis" unicode="&#xff;" horiz-adv-x="626" 
d="M505 615q-20 0 -32.5 12t-12.5 32q0 25 17.5 41.5t40.5 16.5q19 0 31.5 -12.5t12.5 -32.5q0 -24 -17 -40.5t-40 -16.5zM271 614q-19 0 -31.5 12.5t-12.5 31.5q0 26 18 42.5t41 16.5q19 0 31 -12.5t12 -32.5q0 -24 -17.5 -41t-40.5 -17zM651 490h-26q-29 0 -53.5 -18.5
t-53.5 -69.5l-270 -481q-23 -41 -44 -74.5t-43.5 -57t-48 -36.5t-56.5 -13q-44 0 -74 26.5t-30 70.5q0 37 20.5 59.5t49.5 22.5q26 0 39.5 -15t13.5 -36q0 -26 -17 -43.5t-46 -17.5q-20 0 -33.5 11.5t-15.5 34.5q-1 -5 -1 -8v-8q0 -38 27 -62.5t68 -24.5q28 0 52 12.5
t45.5 36t41.5 55.5t42 71l41 72l-121 419q-6 22 -12.5 36t-15 22.5t-20.5 12t-30 3.5h-18l1 10h271l-1 -10h-32q-53 0 -53 -43q0 -7 2 -15.5t5 -19.5l81 -312l171 304q15 24 15 44q0 42 -65 42h-37l1 10h231z" />
    <glyph glyph-name="dotlessi" unicode="&#x131;" horiz-adv-x="324" 
d="M184 89q-3 -23 -3 -30q0 -28 14.5 -38.5t49.5 -10.5h30l-2 -10h-294l2 10h30q41 0 58.5 15.5t23.5 56.5l48 344q1 5 1.5 11t0.5 11q0 23 -12.5 32.5t-43.5 9.5h-36l2 10l184 6l5 -6z" />
    <glyph glyph-name="OE" unicode="&#x152;" horiz-adv-x="1131" 
d="M738 690q-20 0 -23 -20l-43 -312h145q28 0 48.5 6.5t35 22t23.5 40t14 60.5h10l-38 -272h-10q2 14 3 26t1 23q0 46 -20.5 65t-67.5 19h-146l-43 -306q-1 -5 -1.5 -10.5t-0.5 -8.5q0 -13 18 -13h232q28 0 52.5 14t47.5 45t45.5 80.5t46.5 121.5l10 -1l-75 -265l-6 -5h-589
q-80 0 -144.5 20.5t-109.5 59t-69.5 95t-24.5 128.5q0 90 29.5 163.5t82.5 125.5t127.5 80t163.5 28h619l3 -5v-255l-11 -2q-5 74 -14.5 123t-25 77.5t-37.5 40t-53 11.5h-205zM614 616q1 7 1.5 14t0.5 13q0 27 -15 37t-49 10h-88q-69 0 -126 -31t-97 -85.5t-62 -129
t-22 -161.5q0 -67 18 -118t51 -85.5t80 -52t104 -17.5h46q43 0 60.5 15t22.5 57z" />
    <glyph glyph-name="oe" unicode="&#x153;" horiz-adv-x="971" 
d="M915 80q-61 -49 -115 -70t-112 -21q-71 0 -122.5 27.5t-77.5 78.5q-41 -49 -98.5 -77.5t-126.5 -28.5q-52 0 -93 16t-69.5 44.5t-43.5 69t-15 88.5q0 63 23 118t63.5 96.5t95.5 65.5t120 24q64 0 114 -25.5t77 -74.5q39 47 95 73.5t124 26.5q88 0 135.5 -47t47.5 -127
q0 -20 -3 -42l-5 -5h-363q-9 -45 -9 -99q0 -92 40 -140.5t112 -48.5q50 0 98.5 20.5t102.5 64.5zM264 -1q45 0 82.5 29t65 75.5t42.5 105.5t15 119q0 83 -36 128t-95 45q-44 0 -81.5 -29.5t-64.5 -75.5t-42 -103.5t-15 -112.5q0 -85 34 -133t95 -48zM822 300q18 0 25.5 16.5
t7.5 58.5q0 57 -28 91.5t-78 34.5q-65 0 -113 -55t-68 -146h254z" />
    <glyph glyph-name="Scaron" unicode="&#x160;" horiz-adv-x="627" 
d="M239 960l148 -109l175 109l5 -8l-185 -165h-11l-140 165zM86 281q-2 -13 -2.5 -25.5t-0.5 -23.5q2 -57 21.5 -100t52 -72.5t75.5 -44.5t91 -15q36 0 67.5 11t54.5 30.5t36.5 46.5t13.5 60q0 43 -28.5 70t-71.5 47.5t-93.5 38.5t-93.5 43t-71.5 61.5t-28.5 93.5
q0 46 17.5 85t49 66.5t76 43t98.5 15.5q48 0 81.5 -9.5t58 -21t42 -21t33.5 -9.5q17 0 26 13.5t14 47.5h10l-33 -230h-10q-1 34 -10.5 72.5t-33.5 71t-66.5 54t-108.5 21.5q-41 0 -74 -11t-56.5 -31t-36.5 -48t-13 -62q0 -45 29.5 -73.5t73.5 -50.5t96 -41t96 -44
t73.5 -60.5t29.5 -89.5q0 -29 -13.5 -63.5t-43 -65.5t-76.5 -51.5t-114 -20.5q-51 0 -88.5 13.5t-65 29t-46.5 29t-33 13.5q-34 0 -44 -74h-10l40 281h10z" />
    <glyph glyph-name="scaron" unicode="&#x161;" horiz-adv-x="502" 
d="M146 763l148 -109l175 109l6 -8l-186 -165h-10l-140 165zM58 205q2 -40 14 -77t35 -65.5t56.5 -45.5t79.5 -17q59 0 93.5 25.5t34.5 70.5q0 33 -22 53t-55 34t-71 26.5t-71 30.5t-55 44.5t-22 70.5q0 34 14 62.5t38.5 49.5t58 32.5t73.5 11.5q37 0 61 -6.5t41.5 -14
t31 -14t29.5 -6.5q31 0 36 35h9l-28 -197h-9q-2 34 -8.5 68t-24 61.5t-49.5 45t-84 17.5q-27 0 -50 -8t-39.5 -22t-26 -33t-9.5 -41q0 -35 22.5 -56t56 -35t73 -25.5t73 -27.5t56 -40.5t22.5 -65.5q0 -72 -53 -114.5t-143 -42.5q-39 0 -66.5 10t-48 22.5t-35.5 22.5t-29 10
t-23.5 -12.5t-13.5 -38.5h-10l28 202h10z" />
    <glyph glyph-name="Ydieresis" unicode="&#x178;" horiz-adv-x="753" 
d="M574 814q-19 0 -31.5 12.5t-12.5 31.5q0 25 17 41.5t40 16.5q20 0 32.5 -12.5t12.5 -32.5q0 -23 -17.5 -40t-40.5 -17zM341 814q-20 0 -32.5 12.5t-12.5 30.5q0 26 18 42.5t41 16.5q20 0 32 -12t12 -32q0 -25 -17.5 -41.5t-40.5 -16.5zM802 690h-16q-19 0 -36.5 -6.5
t-36 -21t-39 -38.5t-44.5 -59l-199 -287l-26 -192q-1 -7 -1.5 -14t-0.5 -12q0 -29 16 -39.5t55 -10.5h43l-1 -10h-342l1 10h40q49 0 69.5 15.5t26.5 57.5l26 189l-144 361q-14 34 -34 45.5t-62 11.5h-22l1 10h306l-1 -10h-40q-26 0 -38 -11.5t-12 -28.5q0 -8 2.5 -16.5
t6.5 -16.5l129 -323l185 266q35 51 35 81q0 49 -83 49h-27l1 10h263z" />
    <glyph glyph-name="Zcaron" unicode="&#x17d;" horiz-adv-x="662" 
d="M267 960l148 -109l175 109l6 -8l-186 -165h-10l-141 165zM110 10h281q35 0 63.5 12t54.5 41t52 76.5t57 118.5l9 -1l-86 -251l-8 -6h-538l-2 5l564 685h-256q-33 0 -58.5 -12.5t-48.5 -42t-45.5 -77.5t-47.5 -119l-10 2l68 255l6 4h509l3 -5z" />
    <glyph glyph-name="zcaron" unicode="&#x17e;" horiz-adv-x="531" 
d="M180 760l148 -108l175 108l6 -8l-186 -164h-10l-141 164zM113 10h182q58 0 100.5 42t78.5 135l10 -2l-63 -185h-416l-3 5l401 485h-156q-30 0 -53.5 -8.5t-43 -29.5t-38.5 -56t-40 -87l-10 1l58 190h395l2 -4z" />
    <glyph glyph-name="florin" unicode="&#x192;" horiz-adv-x="623" 
d="M360 583q26 86 77 131.5t118 45.5q49 0 75 -23.5t26 -61.5t-17.5 -60t-49.5 -22q-25 0 -40 13.5t-15 36.5q0 28 18 44.5t44 16.5q20 0 33.5 -12.5t15.5 -33.5q1 4 1 8v8q0 35 -23 55.5t-68 20.5q-59 0 -102 -37t-62 -103q-5 -16 -7.5 -31t-2.5 -29q0 -46 25 -72t76 -26
h41l-4 -10h-111l-160 -535q-24 -81 -71.5 -124t-113.5 -43q-44 0 -69.5 24.5t-25.5 65.5q0 32 17.5 52.5t46.5 20.5q21 0 35 -14t14 -34q0 -26 -14.5 -41t-37.5 -15q-24 0 -37 14t-13 34q-1 -5 -1 -8v-7q0 -37 23 -59.5t64 -22.5q29 0 54.5 12t45.5 32t32.5 47.5t16.5 58.5
q2 22 -9 39.5t-31 22.5l144 481h-75l3 10h75z" />
    <glyph glyph-name="uni0237" unicode="&#x237;" horiz-adv-x="267" 
d="M129 419q1 6 1.5 13.5t0.5 15.5q0 24 -13 33t-44 9h-35l1 10l185 6l4 -6l-84 -603q-11 -74 -54 -116t-108 -42q-48 0 -77 24.5t-29 66.5q0 35 19 57.5t48 22.5q21 0 35.5 -13.5t14.5 -35.5q0 -26 -16 -42t-39 -16q-22 0 -35.5 12.5t-14.5 31.5q-1 -5 -1 -15
q0 -38 26 -60.5t70 -22.5q35 0 60 14.5t41 36t23.5 46t7.5 44.5q0 27 -14.5 46.5t-38.5 24.5z" />
    <glyph glyph-name="circumflex" unicode="&#x2c6;" horiz-adv-x="378" 
d="M398 590l-147 106l-176 -108l-5 7l185 165h10l142 -165z" />
    <glyph glyph-name="tilde" unicode="&#x2dc;" horiz-adv-x="416" 
d="M408 759q18 -22 24 -42.5t4 -40.5q-3 -31 -24 -48.5t-54 -17.5q-26 0 -50 10.5t-47.5 23t-48 23t-51.5 10.5q-24 0 -36 -14t-14 -36q-2 -11 -0.5 -24t6.5 -23l-10 -6q-10 18 -14.5 37t-2.5 36q4 40 28.5 63.5t61.5 23.5q25 0 48.5 -10t46.5 -21.5t45.5 -21.5t45.5 -10
q18 0 29 10t13 26q1 10 -0.5 21.5t-9.5 24.5z" />
    <glyph glyph-name="endash" unicode="&#x2013;" horiz-adv-x="744" 
d="M39 235l2 10h664l-2 -10h-664z" />
    <glyph glyph-name="emdash" unicode="&#x2014;" horiz-adv-x="1094" 
d="M38 235l4 10h1013l-4 -10h-1013z" />
    <glyph glyph-name="quoteleft" unicode="&#x2018;" horiz-adv-x="216" 
d="M224 712q-46 0 -74.5 -25t-36.5 -73q7 20 21 29.5t33 9.5q21 0 33.5 -12t12.5 -32q0 -27 -17 -42.5t-43 -15.5q-23 -1 -37 14.5t-14 38.5q0 18 6.5 38.5t21 38.5t38 29.5t58.5 11.5z" />
    <glyph glyph-name="quoteright" unicode="&#x2019;" horiz-adv-x="215" 
d="M80 556q46 0 74.5 25.5t35.5 73.5q-6 -20 -20 -30t-34 -10t-32.5 12t-12.5 33q0 26 17 42t42 16q23 0 37 -15.5t14 -38.5q0 -18 -6.5 -38.5t-20.5 -38t-38 -29.5t-58 -12z" />
    <glyph glyph-name="quotesinglbase" unicode="&#x201a;" horiz-adv-x="217" 
d="M10 -69q45 0 74 25t36 73q-14 -39 -54 -39q-20 0 -33 12t-13 32q0 27 17 42.5t43 15.5q23 1 37 -14.5t14 -38.5q0 -18 -6.5 -38.5t-20.5 -38.5t-38 -29.5t-58 -11.5z" />
    <glyph glyph-name="quotedblleft" unicode="&#x201c;" horiz-adv-x="377" 
d="M224 712q-46 0 -74.5 -25.5t-36.5 -72.5q7 20 21 29.5t33 9.5q21 0 33.5 -12t12.5 -32q0 -27 -17 -43t-43 -16q-23 0 -37 15.5t-14 38.5q0 18 6.5 38.5t21 38.5t38 29.5t58.5 11.5zM385 712q-46 0 -74.5 -25.5t-36.5 -72.5q7 20 21 29.5t34 9.5t32.5 -12t12.5 -32
q0 -27 -17 -43t-42 -16q-23 0 -37.5 15.5t-14.5 38.5q0 18 6.5 38.5t21 38.5t38 29.5t58.5 11.5z" />
    <glyph glyph-name="quotedblright" unicode="&#x201d;" horiz-adv-x="382" 
d="M264 556q45 0 74 25.5t36 73.5q-14 -40 -54 -40q-20 0 -33 12t-13 33q0 26 17 42t43 16q23 0 37 -15.5t14 -38.5q0 -18 -6.5 -38.5t-20.5 -38t-38 -29.5t-58 -12zM97 556q46 0 74.5 25.5t36.5 73.5q-14 -40 -55 -40q-20 0 -32.5 12t-12.5 33q0 26 17 42t42 16
q23 0 37.5 -15.5t14.5 -38.5q0 -18 -6.5 -38.5t-21 -38t-38.5 -29.5t-58 -12z" />
    <glyph glyph-name="quotedblbase" unicode="&#x201e;" horiz-adv-x="383" 
d="M176 -69q45 0 74 25t36 73q-14 -39 -54 -39q-20 0 -33 12t-13 32q0 27 17 42.5t43 15.5q23 1 37 -14.5t14 -38.5q0 -18 -6.5 -38.5t-20.5 -38.5t-38 -29.5t-58 -11.5zM10 -70q45 0 74 25t36 73q-14 -39 -54 -39q-20 0 -32.5 12t-12.5 32q0 27 17 42.5t42 15.5
q23 0 37 -15t14 -38q0 -18 -6.5 -38.5t-20.5 -38.5t-38 -29.5t-58 -11.5z" />
    <glyph glyph-name="dagger" unicode="&#x2020;" horiz-adv-x="486" 
d="M191 -70q11 79 19 140.5t13.5 109t8.5 82.5t3 61q0 31 -3.5 51.5t-10.5 35.5q26 23 39.5 59.5t18.5 70.5q-36 0 -60.5 -6t-42.5 -12.5t-32.5 -12t-30.5 -5.5q-17 0 -27.5 9.5t-10.5 26.5q0 20 13.5 32.5t33.5 12.5q16 0 29 -5.5t29.5 -12.5t40 -13t59.5 -6q2 14 2.5 27.5
t0.5 24.5q0 22 -3 37.5t-6 27.5t-6 22t-3 22q0 24 14 37.5t36 13.5q17 0 27.5 -10.5t10.5 -27.5q0 -18 -7.5 -32t-18 -32t-21 -43.5t-16.5 -66.5q36 0 61 6t43 13t32.5 12.5t30.5 5.5q19 0 28.5 -10.5t9.5 -25.5q0 -20 -13 -32.5t-34 -12.5q-16 0 -29.5 5.5t-30 12.5
t-40 12.5t-59.5 5.5q-2 -14 -4.5 -29t-2.5 -29q0 -20 7.5 -39t20.5 -33q-15 -22 -27.5 -55t-25.5 -87.5t-26.5 -136t-29.5 -201.5h-10z" />
    <glyph glyph-name="daggerdbl" unicode="&#x2021;" horiz-adv-x="489" 
d="M312 744q19 0 28.5 -13t7.5 -33q-2 -21 -10 -35.5t-18 -31.5t-19.5 -41.5t-15.5 -65.5q39 1 62.5 7.5t40 13.5t29.5 12.5t32 5.5q20 0 32 -11.5t12 -28.5q0 -22 -14 -34t-36 -12q-19 0 -31.5 5.5t-28.5 12.5t-38.5 13.5t-60.5 7.5q-4 -26 -6.5 -48t-2.5 -42
q0 -24 5.5 -44t19.5 -36q-31 -29 -43.5 -72t-20.5 -100q39 1 63 7.5t40.5 13.5t29.5 12.5t32 5.5q20 0 31.5 -10.5t11.5 -27.5q0 -21 -14.5 -34.5t-37.5 -13.5q-19 0 -31 5.5t-27 12.5t-37.5 13.5t-61.5 7.5q-2 -17 -3 -31.5t-1 -27.5q0 -23 3.5 -39t7.5 -28.5t7.5 -22
t3.5 -19.5q0 -24 -15 -38.5t-38 -14.5q-19 0 -29.5 11t-10.5 30q0 16 8 28t18.5 30t21.5 46.5t17 75.5q-39 -2 -62.5 -8t-40 -13t-30 -12.5t-32.5 -5.5t-29.5 10.5t-10.5 25.5q0 22 14 36t37 14q18 0 30.5 -5.5t27.5 -12.5t37 -13.5t60 -7.5q3 25 6 46.5t3 41.5q0 52 -26 84
q31 29 44 70t21 100q-38 -2 -62 -8t-40.5 -13t-30.5 -12.5t-32 -5.5t-29 10.5t-11 27.5q0 23 15 35.5t37 12.5q18 0 30.5 -5.5t27 -12.5t36.5 -13.5t60 -7.5q2 19 3 31.5t1 23.5q0 18 -2.5 32t-6 26t-6 23t-2.5 23q0 30 13.5 45.5t36.5 15.5z" />
    <glyph glyph-name="bullet" unicode="&#x2022;" horiz-adv-x="400" 
d="M200 490q31 0 58 -12t47.5 -32.5t32.5 -47.5t12 -58t-12 -58t-32.5 -47.5t-47.5 -32.5t-58 -12t-58.5 12t-47.5 32.5t-32 47.5t-12 58t12 58t32 47.5t47.5 32.5t58.5 12z" />
    <glyph glyph-name="ellipsis" unicode="&#x2026;" horiz-adv-x="732" 
d="M93 99q21 0 34 -13.5t13 -33.5q0 -28 -18.5 -45.5t-44.5 -17.5q-21 0 -34 13.5t-13 33.5q0 28 18.5 45.5t44.5 17.5zM344 99q21 0 34 -13.5t13 -33.5q0 -28 -18.5 -45.5t-44.5 -17.5q-21 0 -34 13.5t-13 33.5q0 28 18.5 45.5t44.5 17.5zM598 99q21 0 34 -13.5t13 -33.5
q0 -28 -18.5 -45.5t-44.5 -17.5q-21 0 -34 13.5t-13 33.5q0 28 18.5 45.5t44.5 17.5z" />
    <glyph glyph-name="perthousand" unicode="&#x2030;" horiz-adv-x="1327" 
d="M282 727q30 0 55.5 -10t44 -27.5t29 -42t10.5 -53.5q0 -39 -14 -73t-38.5 -58.5t-58.5 -38.5t-73 -14q-31 0 -56.5 10t-44 27.5t-28.5 41.5t-10 53q0 39 14 73t38.5 59t58.5 39t73 14zM118 -12l-8 7l687 727l8 -7zM280 717q-25 0 -45.5 -17t-35.5 -44t-23.5 -61t-8.5 -69
q0 -52 19.5 -79t51.5 -27q25 0 45.5 17.5t35.5 45t23.5 62t8.5 69.5q0 46 -19 74.5t-52 28.5zM692 306q30 0 55.5 -10t44 -27.5t29 -42t10.5 -53.5q0 -39 -14 -73t-38.5 -58.5t-58.5 -38.5t-73 -14q-31 0 -56.5 10t-44 27.5t-29 41.5t-10.5 53q0 39 14 73t39 59t59 39t73 14
zM1121 306q30 0 55.5 -10t44 -27.5t29 -42t10.5 -53.5q0 -39 -14 -73t-38.5 -58.5t-58.5 -38.5t-73 -14q-31 0 -56.5 10t-44 27.5t-29 41.5t-10.5 53q0 39 14 73t39 59t59 39t73 14zM690 296q-25 0 -45.5 -17t-35.5 -44t-23.5 -61t-8.5 -69q0 -52 19.5 -79t51.5 -27
q25 0 45.5 17.5t35.5 45t23.5 62t8.5 69.5q0 46 -19 74.5t-52 28.5zM1119 296q-25 0 -45.5 -17t-35.5 -44t-23.5 -61t-8.5 -69q0 -52 19.5 -79t51.5 -27q25 0 45.5 17.5t35.5 45t23.5 62t8.5 69.5q0 46 -19 74.5t-52 28.5z" />
    <glyph glyph-name="guilsinglleft" unicode="&#x2039;" horiz-adv-x="409" 
d="M411 489q-35 -31 -76.5 -68t-81 -70.5t-72.5 -60.5t-51 -38q15 -10 41 -36t56 -60t61.5 -71.5t57.5 -71.5l-6 -6q-76 72 -158.5 135t-161.5 105v6q44 21 93 48t99 58.5t99.5 66t95.5 69.5z" />
    <glyph glyph-name="guilsinglright" unicode="&#x203a;" horiz-adv-x="409" 
d="M-2 13q35 31 76.5 67.5t81 70.5t72.5 60.5t51 38.5q-15 10 -40.5 36t-55.5 60t-61.5 71.5t-57.5 71.5l6 6q76 -73 158.5 -135.5t161.5 -105.5l-1 -6q-44 -21 -93 -48t-98.5 -58.5t-99 -65.5t-95.5 -69z" />
    <glyph glyph-name="Euro" unicode="&#x20ac;" horiz-adv-x="734" 
d="M684 458h-10q-2 43 -11.5 85.5t-32 77t-60 56t-95.5 21.5q-47 0 -88.5 -23.5t-74.5 -65.5t-56.5 -100t-33.5 -127h254l-1 -10h-254q-3 -17 -4.5 -33.5t-2.5 -33.5h252l-2 -10h-250v-23q0 -62 10.5 -111.5t31 -84t51.5 -53.5t72 -19q50 0 93 15.5t77 44t57.5 68.5t33.5 90
h10l-33 -228h-10q1 4 1 10q0 33 -33 33q-15 0 -35 -7.5t-46 -16.5t-59 -16.5t-74 -7.5q-59 0 -105 20.5t-77 59t-47 93t-16 123.5l1 10h-88l2 10h86q1 34 6 67h-83l1 10h84q13 72 43.5 132.5t75 104t101 68t121.5 24.5q43 0 72.5 -8.5t51 -18t39 -18t37.5 -8.5q34 0 43 47
h10z" />
    <glyph glyph-name="trademark" unicode="&#x2122;" horiz-adv-x="652" 
d="M323 659q-6 47 -16.5 64.5t-29.5 17.5h-34q-6 0 -8 -8l-28 -201q-2 -14 7 -19t35 -5l-2 -8h-136l2 8q26 0 35 5t11 19l28 201q1 2 0 4t-7 4h-32q-13 0 -26.5 -16.5t-33.5 -65.5h-7l21 91h233l-6 -91h-6zM696 742q-21 0 -30 -7t-11 -27l-25 -175q-2 -14 5.5 -19.5
t28.5 -5.5l-2 -8h-122l2 8q21 0 29.5 5.5t10.5 19.5l27 194l-126 -227h-3l-82 213l-22 -155q-4 -29 4.5 -39.5t36.5 -10.5l-2 -8h-94l2 8q22 0 31.5 10.5t13.5 39.5l21 143q2 23 -5 32t-29 9l2 8h82l71 -188l105 188h83z" />
    </font>
</defs>
</svg>
